<svg width="15" height="15" viewBox="0 0 15 15" fill="none" xmlns="http://www.w3.org/2000/svg">
<path fill-rule="evenodd" clip-rule="evenodd" d="M7.5 1.875C7.84518 1.875 8.125 2.15482 8.125 2.5L8.125 7.86612L9.55806 6.43306C9.80214 6.18898 10.1979 6.18898 10.4419 6.43306C10.686 6.67714 10.686 7.07286 10.4419 7.31694L7.94194 9.81694C7.69787 10.061 7.30214 10.061 7.05806 9.81694L4.55806 7.31694C4.31398 7.07286 4.31398 6.67714 4.55806 6.43306C4.80214 6.18898 5.19786 6.18898 5.44194 6.43306L6.875 7.86612L6.875 2.5C6.875 2.15482 7.15482 1.875 7.5 1.875ZM3.125 3.75C2.77982 3.75 2.5 4.02982 2.5 4.375V10.625C2.5 10.9702 2.77982 11.25 3.125 11.25L11.875 11.25C12.2202 11.25 12.5 10.9702 12.5 10.625V4.375C12.5 4.02982 12.2202 3.75 11.875 3.75L10 3.75C9.65482 3.75 9.375 3.47018 9.375 3.125C9.375 2.77982 9.65482 2.5 10 2.5H11.875C12.9105 2.5 13.75 3.33947 13.75 4.375V10.625C13.75 11.6605 12.9105 12.5 11.875 12.5H3.125C2.08947 12.5 1.25 11.6605 1.25 10.625V4.375C1.25 3.33947 2.08947 2.5 3.125 2.5H5C5.34518 2.5 5.625 2.77982 5.625 3.125C5.625 3.47018 5.34518 3.75 5 3.75L3.125 3.75Z" fill="white"/>
</svg>
