<svg width="30" height="30" viewBox="0 0 30 30" fill="none" xmlns="http://www.w3.org/2000/svg">
<path d="M27.0968 0H2.76498C1.24424 0 0 1.24424 0 2.76498V27.235C0 28.7558 1.24424 30 2.76498 30H27.235C28.7558 30 30 28.7558 30 27.235V2.76498C29.8618 1.24424 28.6175 0 27.0968 0ZM9.26267 25.8525C9.26267 26.2673 8.84793 26.682 8.43318 26.682H5.11521C4.70046 26.682 4.28571 26.2673 4.28571 25.8525V11.7512C4.28571 11.3364 4.70046 10.9217 5.11521 10.9217H8.43318C8.84793 10.9217 9.26267 11.3364 9.26267 11.7512V25.8525ZM6.77419 9.67742C4.97696 9.67742 3.59447 8.29493 3.59447 6.4977C3.59447 4.70046 4.97696 3.31797 6.77419 3.31797C8.57143 3.31797 9.95392 4.70046 9.95392 6.4977C9.95392 8.29493 8.57143 9.67742 6.77419 9.67742ZM26.682 25.8525C26.682 26.2673 26.4055 26.5438 25.9908 26.5438H22.3963C21.9816 26.5438 21.7051 26.2673 21.7051 25.8525V19.2166C21.7051 18.2488 21.9816 14.9309 19.0783 14.9309C16.8664 14.9309 16.4516 17.1429 16.3134 18.2488V25.8525C16.3134 26.2673 16.0369 26.5438 15.6221 26.5438H12.1659C11.7512 26.5438 11.4747 26.2673 11.4747 25.8525V11.7512C11.4747 11.3364 11.7512 11.0599 12.1659 11.0599H15.6221C16.0369 11.0599 16.3134 11.3364 16.3134 11.7512V12.9954C17.1429 11.7512 18.3871 10.7834 21.0138 10.7834C26.8203 10.7834 26.682 16.1751 26.682 19.0783V25.8525Z" fill="#1A1919"/>
</svg>
