<svg width="20" height="20" viewBox="0 0 20 20" fill="none" xmlns="http://www.w3.org/2000/svg">
<path fill-rule="evenodd" clip-rule="evenodd" d="M9.66667 0C6.67513 0 4.25 2.23858 4.25 5V6.41637C2.33735 7.18783 1 8.94877 1 11V15C1 17.7614 3.42512 20 6.41667 20H12.9167C15.9082 20 18.3333 17.7614 18.3333 15V11C18.3333 8.94877 16.996 7.18783 15.0833 6.41637V5C15.0833 2.23858 12.6582 0 9.66667 0ZM12.9167 5V6H6.41667V5C6.41667 3.34315 7.87174 2 9.66667 2C11.4616 2 12.9167 3.34315 12.9167 5ZM10.75 12C10.75 11.4477 10.265 11 9.66667 11C9.06836 11 8.58333 11.4477 8.58333 12V14C8.58333 14.5523 9.06836 15 9.66667 15C10.265 15 10.75 14.5523 10.75 14V12Z" fill="#1A1919"/>
</svg>
