<svg width="123" height="168" viewBox="0 0 123 168" fill="none" xmlns="http://www.w3.org/2000/svg">
<path d="M108.389 58.8145V42.2027C108.389 19.4431 91.6459 1 70.9791 1H52.2744C31.7385 1 14.865 19.4431 14.865 42.2027V58.8145C7.1477 59.5993 1 66.1394 1 74.1184V151.684C1 160.186 7.93252 166.988 16.3039 166.988H106.688C115.19 166.988 121.992 160.055 121.992 151.684V74.1184C122.254 66.1394 116.106 59.5993 108.389 58.8145ZM52.9284 19.0507H70.7175C82.6205 19.0507 92.2999 29.9073 92.2999 43.2491V58.8145H31.2153V43.2491C31.3461 29.9073 41.0254 19.0507 52.9284 19.0507ZM67.9707 119.507V131.279C67.9707 134.811 65.093 137.688 61.5614 137.688C58.0297 137.688 55.1521 134.811 55.1521 131.279V119.507C49.1352 117.021 44.9495 111.135 44.9495 104.203C44.9495 95.0467 52.4052 87.591 61.5614 87.591C70.7175 87.591 78.1732 95.0467 78.1732 104.203C78.1732 111.135 73.9876 117.021 67.9707 119.507Z" stroke="#1A1919" stroke-miterlimit="10"/>
<path d="M16.4346 161.886C10.8101 161.886 6.36279 157.308 6.36279 151.684V74.1182C6.36279 68.8861 10.2869 64.5697 15.5189 64.0465L20.2278 63.5233V42.2025C20.2278 22.3206 34.6161 6.23193 52.4051 6.23193H71.1098C88.7681 6.23193 103.287 22.3206 103.287 42.2025V63.5233L107.996 64.0465C113.228 64.5697 117.152 68.8861 117.152 74.1182V151.684C117.152 157.308 112.574 161.886 106.95 161.886H16.4346ZM50.0507 131.279C50.0507 137.688 55.2828 142.92 61.6921 142.92C68.1014 142.92 73.3335 137.688 73.3335 131.279V122.777C79.612 118.853 83.536 111.92 83.536 104.334C83.536 92.2997 73.7259 82.4896 61.6921 82.4896C49.6583 82.4896 39.8481 92.2997 39.8481 104.334C39.8481 111.92 43.7722 118.853 50.0507 122.777V131.279ZM52.9283 13.8185C38.1477 13.8185 26.1139 27.0295 26.1139 43.2489V64.0465H97.6627V43.2489C97.6627 27.0295 85.6289 13.8185 70.8482 13.8185H52.9283Z" stroke="#1A1919" stroke-miterlimit="10"/>
</svg>
