<svg width="15" height="15" viewBox="0 0 15 15" fill="none" xmlns="http://www.w3.org/2000/svg">
<path fill-rule="evenodd" clip-rule="evenodd" d="M7.52181 0.364829C7.67986 0.639839 7.65266 0.989069 7.45412 1.23395C6.59642 2.29182 6.08007 3.65749 6.08007 5.15071C6.08007 8.50555 8.6911 11.2252 11.912 11.2252C12.3305 11.2252 12.738 11.1794 13.1303 11.0926C13.4313 11.026 13.7397 11.166 13.8978 11.441C14.0558 11.716 14.0286 12.0652 13.8301 12.3101C12.4972 13.954 10.5015 15 8.27199 15C4.25578 15 1 11.6088 1 7.42554C1 3.78373 3.46678 0.743773 6.7544 0.0164128C7.0554 -0.050182 7.36376 0.0898191 7.52181 0.364829Z" fill="#1A1919"/>
</svg>
