<svg width="15" height="15" viewBox="0 0 15 15" fill="none" xmlns="http://www.w3.org/2000/svg">
<g clip-path="url(#clip0_2604_574)">
<path fill-rule="evenodd" clip-rule="evenodd" d="M7.5 0C7.91421 0 8.25 0.335786 8.25 0.75V2.25C8.25 2.66421 7.91421 3 7.5 3C7.08579 3 6.75 2.66421 6.75 2.25V0.75C6.75 0.335786 7.08579 0 7.5 0ZM12.8033 2.1967C13.0962 2.48959 13.0962 2.96447 12.8033 3.25736L11.7426 4.31802C11.4497 4.61091 10.9749 4.61091 10.682 4.31802C10.3891 4.02513 10.3891 3.55025 10.682 3.25736L11.7426 2.1967C12.0355 1.90381 12.5104 1.90381 12.8033 2.1967ZM2.1967 2.1967C2.48959 1.90381 2.96447 1.90381 3.25736 2.1967L4.31802 3.25736C4.61091 3.55025 4.61091 4.02513 4.31802 4.31802C4.02513 4.61091 3.55025 4.61091 3.25736 4.31802L2.1967 3.25736C1.90381 2.96447 1.90381 2.48959 2.1967 2.1967ZM7.5 5.625C6.46447 5.625 5.625 6.46447 5.625 7.5C5.625 8.53553 6.46447 9.375 7.5 9.375C8.53553 9.375 9.375 8.53553 9.375 7.5C9.375 6.46447 8.53553 5.625 7.5 5.625ZM4.125 7.5C4.125 5.63604 5.63604 4.125 7.5 4.125C9.36396 4.125 10.875 5.63604 10.875 7.5C10.875 9.36396 9.36396 10.875 7.5 10.875C5.63604 10.875 4.125 9.36396 4.125 7.5ZM0 7.5C0 7.08579 0.335786 6.75 0.75 6.75H2.25C2.66421 6.75 3 7.08579 3 7.5C3 7.91421 2.66421 8.25 2.25 8.25H0.75C0.335786 8.25 0 7.91421 0 7.5ZM12 7.5C12 7.08579 12.3358 6.75 12.75 6.75H14.25C14.6642 6.75 15 7.08579 15 7.5C15 7.91421 14.6642 8.25 14.25 8.25H12.75C12.3358 8.25 12 7.91421 12 7.5ZM4.31802 10.682C4.61091 10.9749 4.61091 11.4497 4.31802 11.7426L3.25736 12.8033C2.96447 13.0962 2.48959 13.0962 2.1967 12.8033C1.90381 12.5104 1.90381 12.0355 2.1967 11.7426L3.25736 10.682C3.55025 10.3891 4.02513 10.3891 4.31802 10.682ZM10.682 10.682C10.9749 10.3891 11.4497 10.3891 11.7426 10.682L12.8033 11.7426C13.0962 12.0355 13.0962 12.5104 12.8033 12.8033C12.5104 13.0962 12.0355 13.0962 11.7426 12.8033L10.682 11.7426C10.3891 11.4497 10.3891 10.9749 10.682 10.682ZM7.5 12C7.91421 12 8.25 12.3358 8.25 12.75V14.25C8.25 14.6642 7.91421 15 7.5 15C7.08579 15 6.75 14.6642 6.75 14.25V12.75C6.75 12.3358 7.08579 12 7.5 12Z" fill="#EEEDE8"/>
</g>
<defs>
<clipPath id="clip0_2604_574">
<rect width="15" height="15" fill="white"/>
</clipPath>
</defs>
</svg>
