<svg xmlns="http://www.w3.org/2000/svg" viewBox="0 0 486.53 170.22"><defs><style>.cls-1{fill:none;stroke:#272834;stroke-linecap:round;stroke-linejoin:round;stroke-width:0.95px;}.cls-12,.cls-2{font-size:9px;}.cls-2{font-family:Comfortaa-Regular, Comfortaa;}.cls-3{letter-spacing:-0.02em;}.cls-4{letter-spacing:-0.02em;}.cls-5{letter-spacing:0em;}.cls-6{letter-spacing:-0.02em;}.cls-7{fill:#272834;}.cls-8{fill:#e50914;}.cls-9{fill:#fec601;}.cls-10{fill:#73bfb8;}.cls-11{fill:#8e97fd;}.cls-12{fill:#fff;font-family:GmarketSansBold-KSCpc-EUC-H, Gmarket Sans;}.cls-13{letter-spacing:-0.06em;}.cls-14{letter-spacing:-0.02em;}.cls-15{letter-spacing:-0.01em;}.cls-16{letter-spacing:0.01em;}.cls-17{letter-spacing:-0.01em;}.cls-18{letter-spacing:-0.03em;}.cls-19{letter-spacing:-0.01em;}.cls-20{letter-spacing:-0.02em;}.cls-21{letter-spacing:-0.03em;}.cls-22{letter-spacing:0em;}.cls-23{letter-spacing:-0.01em;}</style></defs><g id="Layer_2" data-name="Layer 2"><g id="pie_graph" data-name="pie graph"><polyline class="cls-1" points="63.4 0.48 63.4 169.74 486.06 169.74"/><text class="cls-2" transform="translate(16.28 9.38)"><tspan class="cls-3">E</tspan><tspan x="6.07" y="0">xpert</tspan></text><text class="cls-2" transform="translate(0 87.94)">Interm<tspan class="cls-4" x="30.38" y="0">e</tspan><tspan class="cls-5" x="35.73" y="0">diate</tspan></text><text class="cls-2" transform="translate(14.45 167.12)">N<tspan class="cls-6" x="7.42" y="0">e</tspan><tspan class="cls-5" x="12.77" y="0">wbie</tspan></text><rect class="cls-7" x="69.47" y="0.48" width="56.73" height="166.64" rx="3.01"/><rect class="cls-8" x="140.09" y="119.19" width="56.73" height="47.93" rx="1.62"/><rect class="cls-9" x="212.32" y="42.24" width="56.73" height="124.88" rx="2.61"/><rect class="cls-10" x="284.55" y="15.44" width="56.73" height="151.68" rx="2.87"/><rect class="cls-11" x="355.17" y="0.48" width="56.73" height="166.64" rx="3.01"/><rect class="cls-7" x="427.4" y="0.48" width="56.73" height="166.64" rx="3.01"/><text class="cls-12" transform="translate(79.59 85.83)"><tspan class="cls-13">K</tspan><tspan x="6.88" y="0">o</tspan><tspan class="cls-14" x="13.14" y="0">r</tspan><tspan x="17.5" y="0">ean</tspan></text><text class="cls-12" transform="translate(151.67 145.19)">N<tspan class="cls-15" x="7.96" y="0">e</tspan><tspan class="cls-16" x="14.01" y="0">t</tspan><tspan x="18.08" y="0">flix</tspan></text><text class="cls-12" transform="translate(229.08 101.31)">Fir<tspan class="cls-17" x="13.64" y="0">s</tspan><tspan x="19.24" y="0">t</tspan><tspan x="3.11" y="10.8">Aid</tspan></text><text class="cls-12" transform="translate(296.42 87.91)"><tspan class="cls-18">A<tspan class="cls-5" x="7.34" y="0">dobe</tspan></tspan><tspan x="0" y="10.8">Sui</tspan><tspan class="cls-19" x="15.86" y="10.8">t</tspan><tspan x="19.72" y="10.8">es</tspan></text><text class="cls-12" transform="translate(375.59 75.03)">JS,<tspan class="cls-20" x="-7.99" y="10.8">R</tspan><tspan x="-1.11" y="10.8">ea</tspan><tspan class="cls-15" x="11.67" y="10.8">c</tspan><tspan class="cls-21" x="17.57" y="10.8">t</tspan><tspan class="cls-22" x="21.24" y="10.8">,</tspan><tspan x="-2.98" y="21.6">CSS</tspan></text><text class="cls-12" transform="translate(457.8 115.51) rotate(-90)">Wi<tspan class="cls-14" x="13.23" y="0">r</tspan><tspan class="cls-23" x="17.59" y="0">e</tspan><tspan x="23.68" y="0">f</tspan><tspan class="cls-14" x="27.48" y="0">r</tspan><tspan class="cls-5" x="31.84" y="0">aming</tspan></text><text/></g></g></svg>