<?xml version="1.0" encoding="UTF-8"?><svg id="Layer_2" xmlns="http://www.w3.org/2000/svg" viewBox="0 0 863 863"><defs><style>.cls-1{fill:#f11e1a;}.cls-1,.cls-2{stroke-width:0px;}.cls-2{fill:#fff;}</style></defs><g id="Layer_1-2"><circle class="cls-1" cx="431.5" cy="431.5" r="431.5"/><path class="cls-2" d="M803,331.5h-271.5V60c0-6.6-5.4-12-12-12h-176c-6.6,0-12,5.4-12,12v271.5H60c-6.6,0-12,5.4-12,12v176c0,6.6,5.4,12,12,12h271.5v271.5c0,6.6,5.4,12,12,12h176c6.6,0,12-5.4,12-12v-271.5h271.5c6.6,0,12-5.4,12-12v-176c0-6.6-5.4-12-12-12Z"/><path class="cls-1" d="M100.02,384.28h25.46v74.38h36.72v20.06h-62.18v-94.45Z"/><path class="cls-1" d="M194.81,478.72h-25.46v-94.45h25.46v94.45Z"/><path class="cls-1" d="M206.19,384.28h60.77v20.18h-35.31v17.13h31.21v20.18h-31.21v36.96h-25.46v-94.45Z"/><path class="cls-1" d="M275.29,384.28h61.48v20.18h-36.02v15.72h31.21v20.3h-31.21v18.18h36.72v20.06h-62.18v-94.45Z"/><path class="cls-1" d="M384.87,382.63c24.17,0,38.01,13.26,38.72,35.08h-25.22c-.35-9.27-4.58-14.78-13.49-14.78s-14.08,4.93-14.08,28.51,4.22,28.74,14.67,28.74c8.8,0,13.84-5.98,14.2-15.49h-14.43v-16.78h38.25v50.8h-18.07l-2.23-10.21c-3.17,7.27-11.5,11.85-21.82,11.85-24.4,0-36.02-18.65-36.02-48.92s11.03-48.81,39.54-48.81Z"/><path class="cls-1" d="M434.02,443.41v-59.13h25.34v60.66c0,10.68,4.46,15.25,12.32,15.25s12.32-4.58,12.32-15.25v-60.66h25.34v59.13c0,22.88-11.97,36.96-37.66,36.96s-37.66-14.08-37.66-36.96Z"/><path class="cls-1" d="M568.47,384.28l29.8,94.45h-25.58l-3.87-15.13h-26.4l-3.87,15.13h-25.46l29.8-94.45h25.58ZM555.68,411.73l-8.45,32.85h16.78l-8.33-32.85Z"/><path class="cls-1" d="M650.36,458.19c-.47-8.45-3.28-11.15-10.21-11.15h-9.86v31.68h-25.46v-94.45h40.95c20.53,0,31.21,11.5,31.21,28.86,0,12.79-6.33,20.88-16.07,23.7,9.74,1.76,13.61,7.74,14.43,20.18l.82,12.79c.24,3.87.94,6.69,2,8.92h-25.34c-1.06-1.99-1.52-5.63-1.76-8.8l-.7-11.73ZM640.62,426.87c7.16,0,10.91-3.29,10.91-11.15s-3.75-11.26-10.91-11.26h-10.33v22.41h10.33Z"/><path class="cls-1" d="M687.66,478.72v-94.45h36.84c30.15,0,38.48,18.07,38.48,47.17s-8.45,47.28-38.48,47.28h-36.84ZM723.68,403.64h-10.56v55.73h10.56c9.97,0,13.96-4.93,13.96-27.92s-4.46-27.81-13.96-27.81Z"/></g></svg>