<svg width="42" height="42" viewBox="0 0 42 42" fill="none" xmlns="http://www.w3.org/2000/svg">
<path d="M37.9355 0H3.87097C1.74194 0 0 1.74194 0 3.87097V38.129C0 40.2581 1.74194 42 3.87097 42H38.129C40.2581 42 42 40.2581 42 38.129V3.87097C41.8065 1.74194 40.0645 0 37.9355 0ZM12.9677 36.1935C12.9677 36.7742 12.3871 37.3548 11.8065 37.3548H7.16129C6.58065 37.3548 6 36.7742 6 36.1935V16.4516C6 15.871 6.58065 15.2903 7.16129 15.2903H11.8065C12.3871 15.2903 12.9677 15.871 12.9677 16.4516V36.1935ZM9.48387 13.5484C6.96774 13.5484 5.03226 11.6129 5.03226 9.09677C5.03226 6.58064 6.96774 4.64516 9.48387 4.64516C12 4.64516 13.9355 6.58064 13.9355 9.09677C13.9355 11.6129 12 13.5484 9.48387 13.5484ZM37.3548 36.1935C37.3548 36.7742 36.9677 37.1613 36.3871 37.1613H31.3548C30.7742 37.1613 30.3871 36.7742 30.3871 36.1935V26.9032C30.3871 25.5484 30.7742 20.9032 26.7097 20.9032C23.6129 20.9032 23.0323 24 22.8387 25.5484V36.1935C22.8387 36.7742 22.4516 37.1613 21.871 37.1613H17.0323C16.4516 37.1613 16.0645 36.7742 16.0645 36.1935V16.4516C16.0645 15.871 16.4516 15.4839 17.0323 15.4839H21.871C22.4516 15.4839 22.8387 15.871 22.8387 16.4516V18.1935C24 16.4516 25.7419 15.0968 29.4194 15.0968C37.5484 15.0968 37.3548 22.6452 37.3548 26.7097V36.1935Z" fill="#272834"/>
</svg>
