<svg width="25" height="25" viewBox="0 0 25 25" fill="none" xmlns="http://www.w3.org/2000/svg">
<path d="M12.5 1.79942C18.4021 1.79942 23.2006 6.59789 23.2006 12.5C23.2006 18.4021 18.4021 23.2006 12.5 23.2006C6.59789 23.2006 1.79942 18.4021 1.79942 12.5C1.79942 6.59789 6.59789 1.79942 12.5 1.79942ZM12.5 0C5.60221 0 0 5.59021 0 12.5C0 19.4098 5.60221 25 12.5 25C19.3978 25 25 19.4098 25 12.5C25 5.59021 19.3978 0 12.5 0Z" fill="#1A1919"/>
<path d="M4.77452 12.5002C4.77452 7.94168 8.13345 4.60675 12.692 4.60675C16.5907 4.60675 19.2899 6.87402 20.0816 10.041H18.0663C17.4305 7.90569 15.4871 6.44216 12.728 6.44216C9.26109 6.44216 6.75389 8.97335 6.75389 12.5122C6.75389 16.0391 9.28508 18.5823 12.728 18.5823C15.5591 18.5823 17.6704 16.9268 18.2102 14.7795H20.2256C19.5658 17.9225 16.6867 20.4177 12.68 20.4177C8.13345 20.3937 4.77452 17.0588 4.77452 12.5002Z" fill="#1A1919"/>
</svg>
