<svg width="20" height="20" viewBox="0 0 20 20" fill="none" xmlns="http://www.w3.org/2000/svg">
<path d="M10 1.43954C14.7217 1.43954 18.5605 5.27831 18.5605 10C18.5605 14.7217 14.7217 18.5605 10 18.5605C5.27831 18.5605 1.43954 14.7217 1.43954 10C1.43954 5.27831 5.27831 1.43954 10 1.43954ZM10 0C4.48177 0 0 4.47217 0 10C0 15.5278 4.48177 20 10 20C15.5182 20 20 15.5278 20 10C20 4.47217 15.5182 0 10 0Z" fill="#1A1919"/>
<path d="M3.81962 10.0002C3.81962 6.35337 6.50676 3.68542 10.1536 3.68542C13.2726 3.68542 15.4319 5.49924 16.0653 8.03283H14.453C13.9444 6.32458 12.3897 5.15375 10.1824 5.15375C7.40887 5.15375 5.40311 7.17871 5.40311 10.0098C5.40311 12.8313 7.42806 14.8658 10.1824 14.8658C12.4473 14.8658 14.1363 13.5415 14.5682 11.8236H16.1805C15.6526 14.338 13.3494 16.3342 10.144 16.3342C6.50676 16.315 3.81962 13.647 3.81962 10.0002Z" fill="#1A1919"/>
</svg>
