<svg xmlns="http://www.w3.org/2000/svg" viewBox="0 0 21 21"><defs><style>.cls-1{fill:#272834;}</style></defs><g id="Layer_2" data-name="Layer 2"><g id="Layer_1-2" data-name="Layer 1"><path class="cls-1" d="M10.5,0A10.5,10.5,0,1,0,21,10.5,10.5,10.5,0,0,0,10.5,0Zm-.23,17.34H6.17a.45.45,0,0,1-.46-.45V4.11a.45.45,0,0,1,.46-.45h4.1Zm5-.45a.45.45,0,0,1-.46.45h-4.1v-4.1a.45.45,0,0,1,.45-.46h3.65a.45.45,0,0,1,.46.46Zm0-9.13a.45.45,0,0,1-.46.46H11.18a.45.45,0,0,1-.45-.46V3.66h4.1a.45.45,0,0,1,.46.45Z"/></g></g></svg>