<svg xmlns="http://www.w3.org/2000/svg" viewBox="0 0 155.66 313.56"><defs><style>.cls-1{fill:#f4f5f5;}.cls-2{fill:#06719d;}.cls-3,.cls-5{fill:#fff;}.cls-4,.cls-9{fill:#094d69;}.cls-5,.cls-6{fill-rule:evenodd;}.cls-6{fill:#f9c74f;}.cls-7{fill:#191919;}.cls-8{fill:#a255df;}.cls-9{stroke:#d9d9d9;}.cls-10{fill:#d5d5d5;}.cls-11{fill:#f4f4f4;}</style></defs><g id="Layer_2" data-name="Layer 2"><g id="medtrack"><path class="cls-1" d="M15.38,305.45c2.62.52,5.26.88,7.91,1.21,2.87.35,5.72.79,8.58,1.14,6.53.78,13.1,1.08,19.68,1.21s13.22.09,19.83.18c5.73.08,11.46.27,17.19.49,10.54.41,21.25.86,31.69-1,5-.89,16.48.45,21.12-1.75,4.19-2,7.54-5.77,7.76-10L146.43,11H9.87V304A45.39,45.39,0,0,0,15.38,305.45Z"/><path class="cls-2" d="M137.53,7h-119c-3.24,2.82-5.72,6.48-8.61,9.69V44H146.43V16.15C143.18,13.44,140.59,9.93,137.53,7Z"/><path class="cls-3" d="M45.93,23H42.32v9.79h-.9V23H37.81v-.76h8.12Zm.31,5.75a4.61,4.61,0,0,1,.43-2,3.31,3.31,0,0,1,3.06-1.92,3.25,3.25,0,0,1,2.54,1.1,4.26,4.26,0,0,1,1,2.91V29A4.71,4.71,0,0,1,52.8,31a3.2,3.2,0,0,1-1.24,1.4,3.35,3.35,0,0,1-1.82.49,3.24,3.24,0,0,1-2.53-1.09,4.23,4.23,0,0,1-1-2.91Zm.87.24a3.58,3.58,0,0,0,.72,2.31,2.35,2.35,0,0,0,1.91.9,2.31,2.31,0,0,0,1.9-.9,3.66,3.66,0,0,0,.74-2.38v-.17A4,4,0,0,0,52,27.09a2.64,2.64,0,0,0-.93-1.16,2.41,2.41,0,0,0-1.38-.41,2.34,2.34,0,0,0-1.89.91,3.68,3.68,0,0,0-.73,2.38Zm7.58-.19a4.74,4.74,0,0,1,.81-2.91,2.62,2.62,0,0,1,2.22-1.09A2.72,2.72,0,0,1,60.14,26v-4.4H61V32.77h-.81l0-1a2.79,2.79,0,0,1-2.45,1.18,2.65,2.65,0,0,1-2.19-1.08,4.8,4.8,0,0,1-.82-2.95Zm.87.15a4.12,4.12,0,0,0,.61,2.37,2,2,0,0,0,1.69.86,2.34,2.34,0,0,0,2.28-1.41V27.07a2.32,2.32,0,0,0-2.26-1.53,2,2,0,0,0-1.71.86A4.39,4.39,0,0,0,55.56,28.93Zm12.67,3.84a4.3,4.3,0,0,1-.16-1.1,3.14,3.14,0,0,1-1.17.93,3.62,3.62,0,0,1-1.49.31,2.65,2.65,0,0,1-1.84-.63,2.19,2.19,0,0,1,.26-3.4,4.55,4.55,0,0,1,2.66-.67h1.57v-.89A1.7,1.7,0,0,0,67.54,26,2.14,2.14,0,0,0,66,25.51a2.38,2.38,0,0,0-1.5.47,1.36,1.36,0,0,0-.59,1.11h-.87a2,2,0,0,1,.87-1.62,3.32,3.32,0,0,1,2.13-.69,3,3,0,0,1,2.07.66,2.33,2.33,0,0,1,.78,1.83V31a4.54,4.54,0,0,0,.24,1.7v.09Zm-2.72-.62a2.88,2.88,0,0,0,1.55-.42,2.48,2.48,0,0,0,1-1.13V28.88H66.51a3.85,3.85,0,0,0-2,.48,1.46,1.46,0,0,0-.25,2.35A1.88,1.88,0,0,0,65.51,32.15Zm8.1-.63,2.29-6.59h.94L73.49,34.1l-.18.41a2.1,2.1,0,0,1-2,1.43,2.79,2.79,0,0,1-.67-.1v-.72l.45,0a1.6,1.6,0,0,0,1-.32,2.39,2.39,0,0,0,.67-1.08l.38-1.06-3-7.77h1Zm3.61,3.22-.51-.38a3.19,3.19,0,0,0,.68-1.83V31.41h.85v.9A3.11,3.11,0,0,1,77.22,34.74Zm11.5-12.52h.9v7.41A3.27,3.27,0,0,1,88.75,32a3.07,3.07,0,0,1-2.32.89,3.24,3.24,0,0,1-2.37-.8,3,3,0,0,1-.82-2.25h.89a2.3,2.3,0,0,0,.6,1.73,2.38,2.38,0,0,0,1.7.57,2.12,2.12,0,0,0,1.63-.67,2.52,2.52,0,0,0,.66-1.81ZM97,32.77a4.22,4.22,0,0,1-.17-1.1,3,3,0,0,1-1.16.93,3.63,3.63,0,0,1-1.5.31,2.64,2.64,0,0,1-1.83-.63,2.07,2.07,0,0,1-.7-1.59,2.1,2.1,0,0,1,.95-1.81,4.57,4.57,0,0,1,2.66-.67h1.58v-.89A1.7,1.7,0,0,0,96.28,26a2.11,2.11,0,0,0-1.5-.49,2.34,2.34,0,0,0-1.5.47,1.37,1.37,0,0,0-.6,1.11h-.87a2,2,0,0,1,.87-1.62,3.33,3.33,0,0,1,2.14-.69,3.06,3.06,0,0,1,2.07.66,2.4,2.4,0,0,1,.78,1.83V31a4.54,4.54,0,0,0,.24,1.7v.09Zm-2.73-.62a2.94,2.94,0,0,0,1.56-.42,2.54,2.54,0,0,0,1-1.13V28.88H95.25a3.81,3.81,0,0,0-2,.48A1.45,1.45,0,0,0,93,31.71,1.85,1.85,0,0,0,94.25,32.15Zm6.56-7.22,0,1.34a3,3,0,0,1,1.1-1.1,2.83,2.83,0,0,1,1.46-.39,2.37,2.37,0,0,1,1.88.71,3.2,3.2,0,0,1,.62,2.13v5.15H105V27.62a2.45,2.45,0,0,0-.45-1.57,1.75,1.75,0,0,0-1.4-.51,2.19,2.19,0,0,0-1.43.5,3,3,0,0,0-.91,1.36v5.37H100V24.93Zm15.93-2.79v.76h-.1a4,4,0,0,0-3,1.11,4.63,4.63,0,0,0-1.21,3.09,3,3,0,0,1,1.11-.93,3.38,3.38,0,0,1,1.51-.33,2.74,2.74,0,0,1,2.21,1,3.72,3.72,0,0,1,.83,2.51,4.3,4.3,0,0,1-.39,1.86,3,3,0,0,1-1.1,1.29,3,3,0,0,1-1.64.45,3.09,3.09,0,0,1-2.46-1.09,4.2,4.2,0,0,1-1-2.84v-.87a6.7,6.7,0,0,1,1.29-4.39,4.56,4.56,0,0,1,3.66-1.58Zm-1.81,4.45a2.66,2.66,0,0,0-1.54.49,2.35,2.35,0,0,0-1,1.24v.74a3.46,3.46,0,0,0,.7,2.25,2.3,2.3,0,0,0,1.84.86,2,2,0,0,0,1.64-.8,3.19,3.19,0,0,0,.63-2,3,3,0,0,0-.63-2A2.08,2.08,0,0,0,114.93,26.59Z"/><rect class="cls-4" x="9.87" y="43.98" width="136.56" height="26.39"/><path class="cls-3" d="M20.94,61.14H19.69V54.07h4v1.06H20.94v2.08h2.57v1.06H20.94Zm4.58-7.43a.84.84,0,0,1,.49.14.57.57,0,0,1,.21.51.58.58,0,0,1-.21.51.77.77,0,0,1-.49.15.81.81,0,0,1-.49-.15.61.61,0,0,1-.2-.51.59.59,0,0,1,.2-.51A.88.88,0,0,1,25.52,53.71Zm.63,2.06v5.37H24.9V55.77ZM29,61.14H27.74V53.62H29Zm3.67-.9a3.42,3.42,0,0,0,.45,0l.41-.11V61a2.24,2.24,0,0,1-.51.15,3.53,3.53,0,0,1-.67.07,2.23,2.23,0,0,1-.83-.15,1.23,1.23,0,0,1-.59-.54,2.05,2.05,0,0,1-.22-1V56.71H30v-.54l.79-.44.4-1.13H32v1.17h1.52v.94H32v2.78a.66.66,0,0,0,.71.75Zm4.1-4.57a2.24,2.24,0,0,1,1.7.65,2.45,2.45,0,0,1,.64,1.79v.63H35.55A1.68,1.68,0,0,0,36,59.88a1.44,1.44,0,0,0,1.07.4,4.42,4.42,0,0,0,.93-.1,5.51,5.51,0,0,0,.85-.31v1a3.61,3.61,0,0,1-.82.28,5.09,5.09,0,0,1-1,.09,3.16,3.16,0,0,1-1.4-.3,2.22,2.22,0,0,1-1-.92,3.19,3.19,0,0,1-.33-1.52A2.92,2.92,0,0,1,35,56.4,2.35,2.35,0,0,1,36.76,55.67Zm0,.93a1.07,1.07,0,0,0-.82.32,1.5,1.5,0,0,0-.36.95h2.31A1.48,1.48,0,0,0,37.6,57,1,1,0,0,0,36.76,56.6Zm6.4-.93h.28l.27,0-.11,1.16-.24,0-.25,0a1.71,1.71,0,0,0-.74.17,1.25,1.25,0,0,0-.56.51,1.55,1.55,0,0,0-.21.85v2.78H40.35V55.77h1l.18.93h.06A2.34,2.34,0,0,1,42.2,56,1.62,1.62,0,0,1,43.16,55.67Zm5.36-.27c0,.21,0,.41,0,.61s0,.35,0,.47h.06a1.7,1.7,0,0,1,.59-.57,1.8,1.8,0,0,1,1-.24,1.87,1.87,0,0,1,1.51.71,4,4,0,0,1,0,4.15,1.9,1.9,0,0,1-1.54.71,2,2,0,0,1-1-.22,2,2,0,0,1-.57-.51h-.09l-.23.63h-.93V53.62h1.25Zm1.22,1.28a1,1,0,0,0-.94.41,2.38,2.38,0,0,0-.28,1.25v.11a2.71,2.71,0,0,0,.26,1.31,1,1,0,0,0,1,.46,1,1,0,0,0,.85-.46,2.44,2.44,0,0,0,.29-1.32,2.34,2.34,0,0,0-.3-1.32A1,1,0,0,0,49.74,56.68Zm2.73-.91h1.36l1.07,3a4.11,4.11,0,0,1,.17.57,3.45,3.45,0,0,1,.1.56h0c0-.16.07-.35.12-.54a5.76,5.76,0,0,1,.18-.59l1-3h1.35L55.6,61.85a3,3,0,0,1-.84,1.23,2,2,0,0,1-1.3.43,2.5,2.5,0,0,1-.42,0l-.32,0v-1l.26,0a1.67,1.67,0,0,0,.32,0,1,1,0,0,0,.74-.27,1.87,1.87,0,0,0,.42-.68l.16-.43Z"/><path class="cls-5" d="M131.35,61.44a.68.68,0,0,1,0-1L135,56.84l-3.64-3.64a.69.69,0,1,1,1-1l4.12,4.12a.68.68,0,0,1,0,1l-4.12,4.12A.68.68,0,0,1,131.35,61.44Z"/><rect class="cls-3" x="24.38" y="114.58" width="108.2" height="59.71" rx="3.3"/><path class="cls-6" d="M40.61,150.09a4.3,4.3,0,1,1,5.53,6.58l-5,4.2a4.3,4.3,0,1,1-5.53-6.58Zm-.69,4.21a.69.69,0,1,0-1.05.89l2,2.34a.69.69,0,1,0,1-.88Z"/><path class="cls-2" d="M24.38,117.87a3.29,3.29,0,0,1,3.3-3.29h101.6a3.29,3.29,0,0,1,3.3,3.29v19.8H24.38Z"/><path class="cls-7" d="M61,150.14a3.25,3.25,0,0,1-.93,2.52,3.76,3.76,0,0,1-2.61.84H55.59v-6.6h2a4,4,0,0,1,1.76.37,2.63,2.63,0,0,1,1.17,1.09A3.58,3.58,0,0,1,61,150.14Zm-1.24,0a2.41,2.41,0,0,0-.54-1.73,2.08,2.08,0,0,0-1.56-.56h-.87v4.63h.71C59,152.51,59.74,151.73,59.74,150.17Zm7,.82a2.71,2.71,0,0,1-.65,1.93,2.3,2.3,0,0,1-1.75.67,2.45,2.45,0,0,1-1.22-.3,2.13,2.13,0,0,1-.84-.89A2.94,2.94,0,0,1,62,151a2.63,2.63,0,0,1,.64-1.91,2.59,2.59,0,0,1,3-.37,2,2,0,0,1,.84.87A2.88,2.88,0,0,1,66.75,151Zm-3.58,0a2.33,2.33,0,0,0,.28,1.23,1,1,0,0,0,.92.43,1,1,0,0,0,.9-.43,2.24,2.24,0,0,0,.29-1.23,2.18,2.18,0,0,0-.29-1.22,1,1,0,0,0-.91-.43,1,1,0,0,0-.91.43A2.27,2.27,0,0,0,63.17,151Zm7.46-2.59a1.85,1.85,0,0,1,1.31.44,1.78,1.78,0,0,1,.48,1.4v3.26H71.26v-3c0-.75-.31-1.13-.93-1.13a1,1,0,0,0-1,.45,2.53,2.53,0,0,0-.25,1.26v2.45H68v-5h.9l.16.66h.07a1.36,1.36,0,0,1,.65-.56A2.17,2.17,0,0,1,70.63,148.4Zm5.26,0a2.12,2.12,0,0,1,1.59.6,2.3,2.3,0,0,1,.59,1.67v.59H74.76a1.61,1.61,0,0,0,.38,1.07,1.37,1.37,0,0,0,1,.37,3.35,3.35,0,0,0,.87-.1,4.41,4.41,0,0,0,.79-.28v.93a3.41,3.41,0,0,1-.76.26,5.3,5.3,0,0,1-1,.08,2.89,2.89,0,0,1-1.3-.28,2.06,2.06,0,0,1-.88-.85,3,3,0,0,1-.32-1.43,2.7,2.7,0,0,1,.64-1.95A2.18,2.18,0,0,1,75.89,148.4Zm0,.86a1,1,0,0,0-.77.3,1.42,1.42,0,0,0-.33.89h2.15a1.37,1.37,0,0,0-.26-.85A.91.91,0,0,0,75.89,149.26Zm6-.86a1.73,1.73,0,0,1,1.41.66,2.94,2.94,0,0,1,.54,1.93,3,3,0,0,1-.56,1.95,1.78,1.78,0,0,1-1.42.65,1.82,1.82,0,0,1-.9-.2,1.8,1.8,0,0,1-.54-.47h-.08a3.42,3.42,0,0,1,0,.39,2.51,2.51,0,0,1,0,.37v2H79.24v-7.23h1l.16.67h.06a1.77,1.77,0,0,1,.55-.54A1.69,1.69,0,0,1,81.88,148.4Zm-.34.94a1,1,0,0,0-.87.37,2,2,0,0,0-.26,1.12V151a2.62,2.62,0,0,0,.24,1.24,1,1,0,0,0,.91.42.88.88,0,0,0,.81-.44,2.5,2.5,0,0,0,.26-1.23,2.32,2.32,0,0,0-.26-1.2A.9.9,0,0,0,81.54,149.34Zm5.5-.94a2.12,2.12,0,0,1,1.59.6,2.3,2.3,0,0,1,.59,1.67v.59H85.91a1.56,1.56,0,0,0,.38,1.07,1.35,1.35,0,0,0,1,.37,3.35,3.35,0,0,0,.87-.1,4.41,4.41,0,0,0,.79-.28v.93a3.49,3.49,0,0,1-.77.26,5.11,5.11,0,0,1-1,.08,2.89,2.89,0,0,1-1.3-.28,2.14,2.14,0,0,1-.89-.85,3,3,0,0,1-.31-1.43,2.7,2.7,0,0,1,.64-1.95A2.18,2.18,0,0,1,87,148.4Zm0,.86a1,1,0,0,0-.77.3,1.42,1.42,0,0,0-.33.89h2.15a1.31,1.31,0,0,0-.27-.85A.88.88,0,0,0,87,149.26Zm6.65,4.24H89.85v-.71l2.46-3.41H90v-.89h3.63v.79l-2.41,3.32h2.48Zm1.64-6.94a.73.73,0,0,1,.45.14.53.53,0,0,1,.2.47.55.55,0,0,1-.2.48.67.67,0,0,1-.45.14.72.72,0,0,1-.46-.14.57.57,0,0,1-.19-.48.55.55,0,0,1,.19-.47A.78.78,0,0,1,95.33,146.56Zm.58,1.93v5H94.75v-5Zm2.65,5H97.4v-7h1.16Z"/><path class="cls-7" d="M56.74,163.07H56.4V159.5c0-.11,0-.22,0-.32a.94.94,0,0,1-.16.14l-.19.15-.59.46-.18-.24,1.15-.86h.29Zm3-2.57a1.49,1.49,0,0,1,1,.33,1.13,1.13,0,0,1,.38.91,1.3,1.3,0,0,1-.42,1,1.64,1.64,0,0,1-1.12.36,3,3,0,0,1-.62-.06,1.47,1.47,0,0,1-.46-.18v-.33a2,2,0,0,0,.49.2,2.33,2.33,0,0,0,.59.08,1.3,1.3,0,0,0,.86-.27,1,1,0,0,0,.33-.79.91.91,0,0,0-.28-.72,1.24,1.24,0,0,0-.86-.26,2.09,2.09,0,0,0-.43,0l-.39.07-.19-.12.17-1.95h2.06v.3H59.11L59,160.59l.31-.05A2,2,0,0,1,59.75,160.5Zm5.59-.65a1,1,0,0,1,.73.26,1.16,1.16,0,0,1,.26.85v2.11H66V161a.85.85,0,0,0-.19-.62.67.67,0,0,0-.52-.21.91.91,0,0,0-.7.27,1.15,1.15,0,0,0-.24.81v1.85H64V161a.85.85,0,0,0-.2-.62.65.65,0,0,0-.51-.21.87.87,0,0,0-.7.28,1.27,1.27,0,0,0-.24.85v1.8H62v-3.16h.27l0,.5h0a1.06,1.06,0,0,1,.36-.4,1,1,0,0,1,.61-.16,1.1,1.1,0,0,1,.59.15.76.76,0,0,1,.33.44h0a1,1,0,0,1,.41-.44A1.29,1.29,0,0,1,65.34,159.85Zm3.16,0a1.15,1.15,0,0,1,.61.15,1,1,0,0,1,.4.39h0l0-.48h.27v3.26a1.18,1.18,0,0,1-1.36,1.32,3,3,0,0,1-.63-.06,2.44,2.44,0,0,1-.5-.15V164a2.26,2.26,0,0,0,.52.18,2.45,2.45,0,0,0,.62.07,1,1,0,0,0,.77-.27,1.06,1.06,0,0,0,.25-.75v-.43c0-.09,0-.17,0-.24h0a1,1,0,0,1-1.05.61,1.17,1.17,0,0,1-1-.41,1.84,1.84,0,0,1-.34-1.2,1.93,1.93,0,0,1,.34-1.21A1.18,1.18,0,0,1,68.5,159.85Zm0,.29a.88.88,0,0,0-.77.36,1.75,1.75,0,0,0-.25,1,1.63,1.63,0,0,0,.25,1,.88.88,0,0,0,.74.33,1.08,1.08,0,0,0,.61-.15.85.85,0,0,0,.32-.44,2.11,2.11,0,0,0,.09-.64v-.2a1.64,1.64,0,0,0-.23-.93A.84.84,0,0,0,68.53,160.14Zm2.79,2.3c0,.22-.12.45-.2.7s-.16.48-.25.69h-.26c.14-.53.25-1,.32-1.45h.36Zm3.35.39h.25a1.05,1.05,0,0,0,.21-.06V163l-.22.06-.28,0a.86.86,0,0,1-.62-.21,1,1,0,0,1-.21-.72v-2h-.47V160l.47-.11.12-.73h.22v.76h1v.27h-1v2C74.14,162.61,74.32,162.83,74.67,162.83Zm2.24-3a1.11,1.11,0,0,1,.8.26,1.16,1.16,0,0,1,.26.83v2.13h-.26l-.06-.54h0a1.47,1.47,0,0,1-.43.43,1.2,1.2,0,0,1-.68.16,1.09,1.09,0,0,1-.72-.22.85.85,0,0,1-.26-.66.79.79,0,0,1,.39-.72,2.29,2.29,0,0,1,1.12-.28l.58,0V161a1,1,0,0,0-.19-.66.74.74,0,0,0-.55-.19,1.84,1.84,0,0,0-.47.06,2.82,2.82,0,0,0-.45.18l-.11-.28a3.54,3.54,0,0,1,.49-.18A2.51,2.51,0,0,1,76.91,159.85Zm.19,1.64a1.85,1.85,0,0,0-.9.22.64.64,0,0,0-.11,1,.76.76,0,0,0,.5.15,1,1,0,0,0,.77-.28,1.14,1.14,0,0,0,.28-.78v-.31Zm2.21-.65v.4c0,.14,0,.27,0,.4h0l.17-.21c.06-.08.13-.15.19-.22l1.2-1.3h.41L80,161.26l1.36,1.81H81l-1.18-1.59-.48.49v1.1H79v-4.52h.33Zm3.8-1a1.11,1.11,0,0,1,1.08.7,1.76,1.76,0,0,1,.15.75v.23H82.08a1.48,1.48,0,0,0,.29,1,1.08,1.08,0,0,0,.84.33,2.44,2.44,0,0,0,.51-.05,2.79,2.79,0,0,0,.48-.17v.31a2.1,2.1,0,0,1-.46.16,3,3,0,0,1-.54,0,1.37,1.37,0,0,1-1.09-.43,1.74,1.74,0,0,1-.38-1.18,2.13,2.13,0,0,1,.16-.86,1.42,1.42,0,0,1,.47-.58A1.25,1.25,0,0,1,83.11,159.85Zm0,.28a.94.94,0,0,0-.71.29,1.36,1.36,0,0,0-.31.83H84a1.43,1.43,0,0,0-.21-.81A.78.78,0,0,0,83.11,160.13Zm5.11,2.94h-.34V159.5c0-.11,0-.22,0-.32a.52.52,0,0,1-.16.14l-.18.15-.59.46-.18-.24,1.15-.86h.29Z"/><path class="cls-3" d="M60.18,124a1.87,1.87,0,0,1-.31,1.07,2.16,2.16,0,0,1-.84.74,2.28,2.28,0,0,1,1,.82,2,2,0,0,1,.35,1.17,2.15,2.15,0,0,1-.73,1.72,2.89,2.89,0,0,1-2,.63,2.86,2.86,0,0,1-2-.64,2.13,2.13,0,0,1-.73-1.71,2,2,0,0,1,.35-1.18,2.25,2.25,0,0,1,1-.81,2.09,2.09,0,0,1-.84-.74,1.87,1.87,0,0,1-.31-1.07,2.16,2.16,0,0,1,.68-1.67,3,3,0,0,1,3.66,0A2.15,2.15,0,0,1,60.18,124ZM59,127.77a1.36,1.36,0,0,0-.36-1,1.4,1.4,0,0,0-1.92,0,1.33,1.33,0,0,0,1,2.31A1.21,1.21,0,0,0,59,127.77Zm-.17-3.68a1.25,1.25,0,0,0-.31-.88,1.18,1.18,0,0,0-1.66,0,1.45,1.45,0,0,0,0,1.79,1.18,1.18,0,0,0,1.66,0A1.24,1.24,0,0,0,58.82,124.09Zm3.67,4.55a.77.77,0,0,1,.59.22.79.79,0,0,1,0,1.07.8.8,0,0,1-.59.21.78.78,0,0,1-.58-.21.77.77,0,0,1,0-1.07A.77.77,0,0,1,62.49,128.64Zm0-4.79a.77.77,0,0,1,.59.22.73.73,0,0,1,.21.54.76.76,0,0,1-.21.54.8.8,0,0,1-.59.21.78.78,0,0,1-.58-.21.74.74,0,0,1-.22-.54.73.73,0,0,1,.21-.54A.77.77,0,0,1,62.49,123.85Zm3.74,1.5h.83a1.45,1.45,0,0,0,1-.33,1.14,1.14,0,0,0,.37-.93,1.26,1.26,0,0,0-.31-.91,1.24,1.24,0,0,0-.94-.32,1.26,1.26,0,0,0-.9.32,1.05,1.05,0,0,0-.36.83H64.55a2.09,2.09,0,0,1,.33-1.15,2.25,2.25,0,0,1,.94-.81,3.11,3.11,0,0,1,1.35-.29,2.83,2.83,0,0,1,1.93.62,2.15,2.15,0,0,1,.7,1.71,1.81,1.81,0,0,1-.35,1,2.32,2.32,0,0,1-.91.73,1.94,1.94,0,0,1,1,.72,2,2,0,0,1,.36,1.19,2.2,2.2,0,0,1-.76,1.76,3,3,0,0,1-2,.65,2.92,2.92,0,0,1-1.94-.63,2.06,2.06,0,0,1-.76-1.68h1.37a1.16,1.16,0,0,0,.36.88,1.39,1.39,0,0,0,1,.34,1.42,1.42,0,0,0,1-.34,1.28,1.28,0,0,0,.36-1,1.27,1.27,0,0,0-.38-1,1.64,1.64,0,0,0-1.14-.35h-.8Zm10.32,1.27a4.55,4.55,0,0,1-.66,2.68,2.35,2.35,0,0,1-2,.89,2.39,2.39,0,0,1-2-.87,4.29,4.29,0,0,1-.69-2.6V125.3a4.44,4.44,0,0,1,.66-2.66,2.77,2.77,0,0,1,4,0,4.23,4.23,0,0,1,.68,2.58Zm-1.37-1.53a3.47,3.47,0,0,0-.31-1.69,1.09,1.09,0,0,0-1-.54,1.07,1.07,0,0,0-1,.51,3.2,3.2,0,0,0-.33,1.59v1.86a3.46,3.46,0,0,0,.32,1.71,1.07,1.07,0,0,0,1,.57,1,1,0,0,0,1-.52,3.36,3.36,0,0,0,.33-1.64Zm10.28,3.08H82.28l-.67,1.91H80.13l3.1-8.21h1.28l3.1,8.21H86.13ZM82.68,127h2.38l-1.19-3.41Zm7.72-5.15,2.37,6.29,2.36-6.29H97v8.21H95.55v-2.71l.14-3.62-2.42,6.33h-1l-2.42-6.32.14,3.61v2.71H88.55v-8.21Z"/><path class="cls-3" d="M115.59,127.15a1,1,0,1,0-1-1A1,1,0,0,0,115.59,127.15Z"/><path class="cls-3" d="M119.71,127.15a1,1,0,1,0-1-1A1,1,0,0,0,119.71,127.15Z"/><path class="cls-3" d="M123.84,127.15a1,1,0,1,0-1-1A1,1,0,0,0,123.84,127.15Z"/><rect class="cls-3" x="24.38" y="182.86" width="108.2" height="95.66" rx="3.3"/><path class="cls-2" d="M24.38,186.16a3.3,3.3,0,0,1,3.3-3.3h101.6a3.3,3.3,0,0,1,3.3,3.3V206H24.38Z"/><path class="cls-6" d="M40.61,218.37A4.3,4.3,0,1,1,46.14,225l-5,4.2a4.3,4.3,0,1,1-5.53-6.58Zm-.69,4.21a.69.69,0,0,0-1-.08.68.68,0,0,0-.08,1l2,2.35a.69.69,0,1,0,1-.89Z"/><path class="cls-7" d="M61,218.42a3.25,3.25,0,0,1-.93,2.52,3.76,3.76,0,0,1-2.61.84H55.59v-6.59h2a3.87,3.87,0,0,1,1.76.37,2.58,2.58,0,0,1,1.17,1.09A3.51,3.51,0,0,1,61,218.42Zm-1.24,0a2.42,2.42,0,0,0-.54-1.74,2.08,2.08,0,0,0-1.56-.55h-.87v4.62h.71A2,2,0,0,0,59.74,218.46Zm7,.81a2.71,2.71,0,0,1-.65,1.93,2.3,2.3,0,0,1-1.75.67,2.45,2.45,0,0,1-1.22-.3,2.07,2.07,0,0,1-.84-.89,2.94,2.94,0,0,1-.31-1.41,2.63,2.63,0,0,1,.64-1.91,2.59,2.59,0,0,1,3-.37,2,2,0,0,1,.84.87A2.91,2.91,0,0,1,66.75,219.27Zm-3.58,0a2.33,2.33,0,0,0,.28,1.23,1,1,0,0,0,.92.43,1,1,0,0,0,.9-.43,2.24,2.24,0,0,0,.29-1.23,2.18,2.18,0,0,0-.29-1.22,1,1,0,0,0-.91-.43,1,1,0,0,0-.91.43A2.27,2.27,0,0,0,63.17,219.27Zm7.46-2.59a1.85,1.85,0,0,1,1.31.44,1.8,1.8,0,0,1,.48,1.4v3.26H71.26v-3c0-.75-.31-1.13-.93-1.13a1,1,0,0,0-1,.45,2.56,2.56,0,0,0-.25,1.26v2.45H68v-5h.9l.16.65h.07a1.36,1.36,0,0,1,.65-.56A2.17,2.17,0,0,1,70.63,216.68Zm5.26,0a2.12,2.12,0,0,1,1.59.6,2.3,2.3,0,0,1,.59,1.67v.6H74.76a1.58,1.58,0,0,0,.38,1.06,1.37,1.37,0,0,0,1,.37,3.88,3.88,0,0,0,.87-.09,5.43,5.43,0,0,0,.79-.29v.93a3.41,3.41,0,0,1-.76.26,4.53,4.53,0,0,1-1,.08,3,3,0,0,1-1.3-.27,2.08,2.08,0,0,1-.88-.86,2.92,2.92,0,0,1-.32-1.42,2.72,2.72,0,0,1,.64-2A2.18,2.18,0,0,1,75.89,216.68Zm0,.86a1,1,0,0,0-.77.31,1.37,1.37,0,0,0-.33.88h2.15a1.39,1.39,0,0,0-.26-.85A.94.94,0,0,0,75.89,217.54Zm6-.86a1.73,1.73,0,0,1,1.41.66,2.94,2.94,0,0,1,.54,1.93,3,3,0,0,1-.56,1.95,1.78,1.78,0,0,1-1.42.65,1.72,1.72,0,0,1-.9-.2,1.8,1.8,0,0,1-.54-.47h-.08c0,.12,0,.25,0,.39a2.53,2.53,0,0,1,0,.38v2H79.24v-7.22h1l.16.66h.06a1.61,1.61,0,0,1,1.47-.76Zm-.34.94a1,1,0,0,0-.87.37,2,2,0,0,0-.26,1.12v.15a2.6,2.6,0,0,0,.24,1.24,1,1,0,0,0,.91.42.88.88,0,0,0,.81-.44,2.5,2.5,0,0,0,.26-1.23,2.32,2.32,0,0,0-.26-1.2A.92.92,0,0,0,81.54,217.62Zm5.5-.94a2.12,2.12,0,0,1,1.59.6,2.3,2.3,0,0,1,.59,1.67v.6H85.91a1.53,1.53,0,0,0,.38,1.06,1.35,1.35,0,0,0,1,.37,3.88,3.88,0,0,0,.87-.09,5.43,5.43,0,0,0,.79-.29v.93a3.49,3.49,0,0,1-.77.26,4.37,4.37,0,0,1-1,.08,3,3,0,0,1-1.3-.27,2.16,2.16,0,0,1-.89-.86,2.92,2.92,0,0,1-.31-1.42,2.72,2.72,0,0,1,.64-2A2.18,2.18,0,0,1,87,216.68Zm0,.86a1,1,0,0,0-.77.31,1.37,1.37,0,0,0-.33.88h2.15a1.33,1.33,0,0,0-.27-.85A.9.9,0,0,0,87,217.54Zm6.65,4.24H89.85v-.71l2.46-3.41H90v-.88h3.63v.78l-2.41,3.33h2.48Zm1.64-6.94a.73.73,0,0,1,.45.14.54.54,0,0,1,.2.47.55.55,0,0,1-.2.48.67.67,0,0,1-.45.14.72.72,0,0,1-.46-.14.57.57,0,0,1-.19-.48.56.56,0,0,1,.19-.47A.78.78,0,0,1,95.33,214.84Zm.58,1.94v5H94.75v-5Zm2.65,5H97.4v-7h1.16Z"/><path class="cls-7" d="M56.74,231.35H56.4v-3.57c0-.11,0-.22,0-.32l-.16.15-.19.14-.59.46L55.3,228l1.15-.86h.29Zm3-2.57a1.49,1.49,0,0,1,1,.33,1.13,1.13,0,0,1,.38.91,1.3,1.3,0,0,1-.42,1,1.64,1.64,0,0,1-1.12.37,3,3,0,0,1-.62-.07,1.47,1.47,0,0,1-.46-.18v-.33a2,2,0,0,0,.49.2,2.33,2.33,0,0,0,.59.08,1.3,1.3,0,0,0,.86-.27,1,1,0,0,0,.33-.79.91.91,0,0,0-.28-.72,1.24,1.24,0,0,0-.86-.26,2.09,2.09,0,0,0-.43,0,3,3,0,0,0-.39.08l-.19-.13.17-1.95h2.06v.31H59.11L59,228.87l.31-.05A2,2,0,0,1,59.75,228.78Zm5.59-.65a1,1,0,0,1,.73.27,1.13,1.13,0,0,1,.26.84v2.11H66v-2.1a.85.85,0,0,0-.19-.62.67.67,0,0,0-.52-.21.91.91,0,0,0-.7.27,1.15,1.15,0,0,0-.24.81v1.85H64v-2.1a.85.85,0,0,0-.2-.62.65.65,0,0,0-.51-.21.87.87,0,0,0-.7.28,1.29,1.29,0,0,0-.24.85v1.8H62v-3.16h.27l0,.5h0a1,1,0,0,1,.36-.39,1,1,0,0,1,.61-.17,1.1,1.1,0,0,1,.59.15.79.79,0,0,1,.33.44h0a1,1,0,0,1,.41-.44A1.29,1.29,0,0,1,65.34,228.13Zm3.16,0a1.15,1.15,0,0,1,.61.15,1,1,0,0,1,.4.39h0l0-.48h.27v3.26a1.35,1.35,0,0,1-.32,1,1.32,1.32,0,0,1-1,.35,3,3,0,0,1-.63-.06,1.94,1.94,0,0,1-.5-.15v-.33a1.87,1.87,0,0,0,.52.18,2.45,2.45,0,0,0,.62.07,1,1,0,0,0,.77-.27,1,1,0,0,0,.25-.74V231c0-.08,0-.17,0-.24h0a1,1,0,0,1-1.05.62,1.17,1.17,0,0,1-1-.42,1.84,1.84,0,0,1-.34-1.2,1.93,1.93,0,0,1,.34-1.21A1.18,1.18,0,0,1,68.5,228.13Zm0,.29a.88.88,0,0,0-.77.36,1.75,1.75,0,0,0-.25,1,1.63,1.63,0,0,0,.25,1,.89.89,0,0,0,.74.34,1.08,1.08,0,0,0,.61-.16.85.85,0,0,0,.32-.44,2,2,0,0,0,.09-.63v-.21a1.64,1.64,0,0,0-.23-.93A.84.84,0,0,0,68.53,228.42Zm2.79,2.3c0,.22-.12.45-.2.7s-.16.48-.25.69h-.26a14.36,14.36,0,0,0,.32-1.45h.36Zm3.35.4.25,0a.65.65,0,0,0,.21-.06v.28l-.22.06a1.27,1.27,0,0,1-.28,0,.87.87,0,0,1-.62-.22,1,1,0,0,1-.21-.72v-2h-.47v-.19l.47-.11.12-.73h.22v.76h1v.27h-1v2C74.14,230.89,74.32,231.12,74.67,231.12Zm2.24-3a1.07,1.07,0,0,1,.8.27,1.14,1.14,0,0,1,.26.82v2.13h-.26l-.06-.54h0a1.51,1.51,0,0,1-.43.44,1.29,1.29,0,0,1-.68.16,1.09,1.09,0,0,1-.72-.23.84.84,0,0,1-.26-.66.81.81,0,0,1,.39-.72,2.29,2.29,0,0,1,1.12-.28l.58,0v-.22a1,1,0,0,0-.19-.65.74.74,0,0,0-.55-.2,1.49,1.49,0,0,0-.47.07,2.75,2.75,0,0,0-.45.17l-.11-.28a2.58,2.58,0,0,1,.49-.17A2,2,0,0,1,76.91,228.13Zm.19,1.64a1.85,1.85,0,0,0-.9.22.57.57,0,0,0-.29.53.55.55,0,0,0,.18.45.76.76,0,0,0,.5.15,1,1,0,0,0,.77-.28,1.14,1.14,0,0,0,.28-.78v-.31Zm2.21-.64v.39c0,.14,0,.27,0,.4h0l.17-.21.19-.22,1.2-1.3h.41L80,229.54l1.36,1.81H81l-1.18-1.59-.48.49v1.1H79v-4.52h.33Zm3.8-1a1.11,1.11,0,0,1,1.08.7,1.79,1.79,0,0,1,.15.75v.23H82.08a1.48,1.48,0,0,0,.29,1,1.08,1.08,0,0,0,.84.33,2.44,2.44,0,0,0,.51-.05,2.7,2.7,0,0,0,.48-.16v.3a1.68,1.68,0,0,1-.46.16,2.92,2.92,0,0,1-.54,0,1.37,1.37,0,0,1-1.09-.44,1.74,1.74,0,0,1-.38-1.18,2.08,2.08,0,0,1,.16-.85,1.39,1.39,0,0,1,.47-.59A1.25,1.25,0,0,1,83.11,228.13Zm0,.28a.94.94,0,0,0-.71.29,1.36,1.36,0,0,0-.31.83H84a1.43,1.43,0,0,0-.21-.81A.78.78,0,0,0,83.11,228.41Zm5.11,2.94h-.34v-3.57c0-.11,0-.22,0-.32a.75.75,0,0,1-.16.15,1,1,0,0,1-.18.14l-.59.46-.18-.24,1.15-.86h.29Z"/><path class="cls-3" d="M57.79,198.36H56.43v-6.59l-2,.69V191.3l3.2-1.18h.17Zm8.38,0H60.65v-.94l2.73-3a6.29,6.29,0,0,0,.84-1.1,1.8,1.8,0,0,0,.25-.89,1.36,1.36,0,0,0-.33-.95,1.13,1.13,0,0,0-.88-.36,1.27,1.27,0,0,0-1,.41,1.57,1.57,0,0,0-.37,1.11H60.49a2.66,2.66,0,0,1,.34-1.35,2.37,2.37,0,0,1,1-.94,3.18,3.18,0,0,1,1.47-.33,2.76,2.76,0,0,1,1.88.6,2.08,2.08,0,0,1,.69,1.66,2.83,2.83,0,0,1-.34,1.29,7.13,7.13,0,0,1-1.14,1.53l-2,2.15h3.81Zm2-1.44a.76.76,0,0,1,.59.22.79.79,0,0,1,0,1.07.92.92,0,0,1-1.17,0,.69.69,0,0,1-.21-.53.74.74,0,0,1,.79-.76Zm0-4.79a.76.76,0,0,1,.59.22.8.8,0,0,1,0,1.08.92.92,0,0,1-1.17,0,.76.76,0,0,1,.58-1.3Zm7.51,2.78a4.49,4.49,0,0,1-.67,2.67,2.35,2.35,0,0,1-2,.89,2.39,2.39,0,0,1-2-.87,4.29,4.29,0,0,1-.69-2.6v-1.42a4.46,4.46,0,0,1,.66-2.66,2.41,2.41,0,0,1,2-.88,2.38,2.38,0,0,1,2,.86,4.29,4.29,0,0,1,.69,2.58Zm-1.37-1.54a3.46,3.46,0,0,0-.32-1.69,1.21,1.21,0,0,0-2,0,3.2,3.2,0,0,0-.33,1.59v1.86a3.53,3.53,0,0,0,.32,1.72,1.08,1.08,0,0,0,1,.56,1,1,0,0,0,1-.52,3.45,3.45,0,0,0,.34-1.63Zm7.93,1.54a4.42,4.42,0,0,1-.67,2.67,2.35,2.35,0,0,1-2,.89,2.39,2.39,0,0,1-2-.87,4.43,4.43,0,0,1-.69-2.6v-1.42a4.46,4.46,0,0,1,.66-2.66,2.41,2.41,0,0,1,2-.88,2.38,2.38,0,0,1,2,.86,4.29,4.29,0,0,1,.68,2.58Zm-1.37-1.54a3.46,3.46,0,0,0-.32-1.69,1.21,1.21,0,0,0-2,0,3.2,3.2,0,0,0-.33,1.59v1.86a3.65,3.65,0,0,0,.32,1.72,1.08,1.08,0,0,0,1,.56,1,1,0,0,0,1-.52,3.22,3.22,0,0,0,.34-1.63Zm7.1,1.94v3.05H86.49v-8.21h3.14a3.18,3.18,0,0,1,2.19.72,2.41,2.41,0,0,1,.81,1.89,2.33,2.33,0,0,1-.8,1.88,3.28,3.28,0,0,1-2.21.67Zm0-1.14h1.71a1.71,1.71,0,0,0,1.17-.36,1.34,1.34,0,0,0,.4-1,1.43,1.43,0,0,0-.41-1.06,1.6,1.6,0,0,0-1.12-.41H87.92Zm7.81-4,2.37,6.29,2.36-6.29h1.84v8.21h-1.42v-2.71L101,192l-2.42,6.32h-1L95.16,192l.14,3.61v2.71H93.88v-8.21Z"/><path class="cls-3" d="M115.59,195.43a1,1,0,1,0-1-1A1,1,0,0,0,115.59,195.43Z"/><path class="cls-3" d="M119.71,195.43a1,1,0,1,0-1-1A1,1,0,0,0,119.71,195.43Z"/><path class="cls-3" d="M123.84,195.43a1,1,0,1,0-1-1A1,1,0,0,0,123.84,195.43Z"/><path class="cls-7" d="M60.85,254.77H59.67v-2.93h-2.9v2.93H55.59v-6.6h1.18v2.66h2.9v-2.66h1.18Zm.86-5H63l1,2.83a3.93,3.93,0,0,1,.17.52,4.89,4.89,0,0,1,.09.53h0a4.33,4.33,0,0,1,.11-.51,5.6,5.6,0,0,1,.17-.54l1-2.83h1.25l-2.13,5.67a2.6,2.6,0,0,1-.79,1.15,1.82,1.82,0,0,1-1.21.4l-.39,0-.3,0V256l.24,0a1.56,1.56,0,0,0,.31,0,.88.88,0,0,0,.68-.26,1.7,1.7,0,0,0,.4-.62l.14-.41Zm7.45,5.1a1.73,1.73,0,0,1-1.41-.66,3,3,0,0,1-.54-1.93,3,3,0,0,1,.55-2,1.82,1.82,0,0,1,2.91.08h0c0-.09,0-.22,0-.4a4.46,4.46,0,0,1,0-.5v-1.75H71.8v7h-.9l-.21-.66h0a1.93,1.93,0,0,1-.56.54A1.79,1.79,0,0,1,69.16,254.86Zm.35-.94a1.05,1.05,0,0,0,.91-.37,2,2,0,0,0,.28-1.12v-.15a2.45,2.45,0,0,0-.26-1.23,1,1,0,0,0-.94-.43.94.94,0,0,0-.83.44,2.34,2.34,0,0,0-.27,1.23,2.14,2.14,0,0,0,.28,1.21A.94.94,0,0,0,69.51,253.92Zm6.4-4.25h.26a.87.87,0,0,1,.25,0l-.1,1.08a.69.69,0,0,0-.22,0l-.23,0a1.46,1.46,0,0,0-.69.16,1.15,1.15,0,0,0-.53.47,1.47,1.47,0,0,0-.2.79v2.6H73.29v-5h.9l.16.87h.06A2,2,0,0,1,75,250,1.42,1.42,0,0,1,75.91,249.67Zm5.73,2.59a2.71,2.71,0,0,1-.65,1.93,2.3,2.3,0,0,1-1.75.67,2.45,2.45,0,0,1-1.22-.3,2.13,2.13,0,0,1-.84-.89,3.06,3.06,0,0,1-.31-1.41,2.7,2.7,0,0,1,.64-1.92,2.32,2.32,0,0,1,1.76-.67,2.42,2.42,0,0,1,1.22.3,2.12,2.12,0,0,1,.85.88A3,3,0,0,1,81.64,252.26Zm-3.57,0a2.32,2.32,0,0,0,.27,1.22,1,1,0,0,0,.92.44,1,1,0,0,0,.9-.44,2.22,2.22,0,0,0,.29-1.22,2.18,2.18,0,0,0-.29-1.22,1,1,0,0,0-.91-.43,1,1,0,0,0-.91.43A2.28,2.28,0,0,0,78.07,252.26Zm6.8,2.6a2.31,2.31,0,0,1-1.7-.62,2.63,2.63,0,0,1-.62-2,3.21,3.21,0,0,1,.3-1.49,1.91,1.91,0,0,1,.86-.85,2.65,2.65,0,0,1,1.25-.28,3.61,3.61,0,0,1,.84.09,3.53,3.53,0,0,1,.63.22l-.35.92a4.23,4.23,0,0,0-.57-.19,2.15,2.15,0,0,0-.55-.08c-.81,0-1.22.55-1.22,1.65a2,2,0,0,0,.3,1.21,1.08,1.08,0,0,0,.9.41,2.41,2.41,0,0,0,.74-.1,3.11,3.11,0,0,0,.62-.28v1a2.6,2.6,0,0,1-.62.25A3.69,3.69,0,0,1,84.87,254.86Zm7.07-2.6a2.71,2.71,0,0,1-.65,1.93,2.3,2.3,0,0,1-1.75.67,2.45,2.45,0,0,1-1.22-.3,2.13,2.13,0,0,1-.84-.89,3.06,3.06,0,0,1-.31-1.41,2.7,2.7,0,0,1,.64-1.92,2.32,2.32,0,0,1,1.76-.67,2.49,2.49,0,0,1,1.23.3,2.16,2.16,0,0,1,.84.88A3,3,0,0,1,91.94,252.26Zm-3.57,0a2.32,2.32,0,0,0,.27,1.22,1,1,0,0,0,.92.44,1,1,0,0,0,.9-.44,2.22,2.22,0,0,0,.29-1.22,2.18,2.18,0,0,0-.29-1.22,1,1,0,0,0-.91-.43,1,1,0,0,0-.91.43A2.28,2.28,0,0,0,88.37,252.26Zm6.43,2.6a1.74,1.74,0,0,1-1.42-.66,3.78,3.78,0,0,1,0-3.88,1.79,1.79,0,0,1,1.43-.65,1.75,1.75,0,0,1,.91.21,1.8,1.8,0,0,1,.57.52h.06a4,4,0,0,1-.06-.4,4.46,4.46,0,0,1,0-.5v-1.75h1.17v7h-.91l-.21-.66h0a1.81,1.81,0,0,1-.56.54A1.75,1.75,0,0,1,94.8,254.86Zm.35-.94a1,1,0,0,0,.9-.37,2,2,0,0,0,.28-1.12v-.15a2.45,2.45,0,0,0-.26-1.23,1,1,0,0,0-.94-.43.92.92,0,0,0-.82.44,2.24,2.24,0,0,0-.28,1.23,2.14,2.14,0,0,0,.29,1.21A.93.93,0,0,0,95.15,253.92Zm8.25-1.66a2.71,2.71,0,0,1-.65,1.93,2.32,2.32,0,0,1-1.76.67,2.48,2.48,0,0,1-1.22-.3,2.26,2.26,0,0,1-.84-.89,3.06,3.06,0,0,1-.3-1.41,2.65,2.65,0,0,1,.64-1.92,2.3,2.3,0,0,1,1.75-.67,2.49,2.49,0,0,1,1.23.3,2,2,0,0,1,.84.88A3,3,0,0,1,103.4,252.26Zm-3.58,0a2.23,2.23,0,0,0,.28,1.22,1.16,1.16,0,0,0,1.82,0,2.23,2.23,0,0,0,.28-1.22,2.18,2.18,0,0,0-.28-1.22,1,1,0,0,0-.92-.43,1,1,0,0,0-.9.43A2.18,2.18,0,0,0,99.82,252.26Zm7.46-2.59a1.86,1.86,0,0,1,1.31.43,1.82,1.82,0,0,1,.48,1.41v3.26h-1.16v-3c0-.75-.31-1.13-.93-1.13a1,1,0,0,0-1,.44,2.59,2.59,0,0,0-.26,1.27v2.45H104.6v-5h.89l.17.66h.07a1.39,1.39,0,0,1,.65-.57A2.26,2.26,0,0,1,107.28,249.67Zm5.26,0a2.12,2.12,0,0,1,1.59.6,2.3,2.3,0,0,1,.59,1.67v.59h-3.31a1.52,1.52,0,0,0,.38,1.06,1.31,1.31,0,0,0,1,.37,3.88,3.88,0,0,0,.87-.09,5.79,5.79,0,0,0,.79-.28v.93a3.49,3.49,0,0,1-.77.26,5.11,5.11,0,0,1-1,.08,2.89,2.89,0,0,1-1.3-.28,2,2,0,0,1-.89-.86,2.9,2.9,0,0,1-.31-1.42,2.74,2.74,0,0,1,.64-2A2.18,2.18,0,0,1,112.54,249.67Zm0,.86a1,1,0,0,0-.77.3,1.42,1.42,0,0,0-.33.89h2.15a1.35,1.35,0,0,0-.27-.85A.88.88,0,0,0,112.54,250.53Z"/><path class="cls-7" d="M56.36,261.77a1.49,1.49,0,0,1,1,.33,1.12,1.12,0,0,1,.38.91,1.26,1.26,0,0,1-.42,1,1.61,1.61,0,0,1-1.12.37,3,3,0,0,1-.62-.06,2.21,2.21,0,0,1-.46-.18v-.33a1.85,1.85,0,0,0,.49.2,2.33,2.33,0,0,0,.59.08,1.3,1.3,0,0,0,.86-.27,1,1,0,0,0,.33-.79.91.91,0,0,0-.28-.72,1.24,1.24,0,0,0-.86-.26,2.25,2.25,0,0,0-.44,0l-.38.07-.19-.12.17-2h2v.31H55.72l-.12,1.46.31-.06A3,3,0,0,1,56.36,261.77Zm5.58-.65a1,1,0,0,1,.74.26,1.2,1.2,0,0,1,.26.85v2.1h-.33v-2.09a.9.9,0,0,0-.2-.63.66.66,0,0,0-.51-.2.93.93,0,0,0-.7.26,1.2,1.2,0,0,0-.24.82v1.84h-.33v-2.09a.9.9,0,0,0-.2-.63.7.7,0,0,0-.52-.2.85.85,0,0,0-.69.28,1.27,1.27,0,0,0-.24.85v1.79h-.34v-3.16h.28l0,.5h0a1.18,1.18,0,0,1,.35-.39,1.1,1.1,0,0,1,.62-.16,1,1,0,0,1,.58.14.84.84,0,0,1,.34.44h0a1,1,0,0,1,.4-.43A1.34,1.34,0,0,1,61.94,261.12Zm3.17,0a1.15,1.15,0,0,1,.61.14,1.18,1.18,0,0,1,.4.4h0l0-.49h.27v3.26a1.43,1.43,0,0,1-.32,1,1.36,1.36,0,0,1-1,.35,2.93,2.93,0,0,1-.63-.06,2.26,2.26,0,0,1-.5-.16v-.32a3,3,0,0,0,.51.18,3.2,3.2,0,0,0,.63.07,1,1,0,0,0,.77-.28,1,1,0,0,0,.25-.74V264c0-.09,0-.17,0-.24h0a1,1,0,0,1-1.05.61,1.2,1.2,0,0,1-1-.41,1.84,1.84,0,0,1-.34-1.2,1.91,1.91,0,0,1,.34-1.21A1.18,1.18,0,0,1,65.11,261.12Zm0,.29a.88.88,0,0,0-.77.36,1.73,1.73,0,0,0-.25,1,1.59,1.59,0,0,0,.25,1,.86.86,0,0,0,.74.34,1.08,1.08,0,0,0,.61-.15.87.87,0,0,0,.31-.44,1.83,1.83,0,0,0,.1-.64v-.2a1.64,1.64,0,0,0-.23-.93A.84.84,0,0,0,65.14,261.41Zm2.79,2.3c-.06.22-.12.45-.2.7a5.52,5.52,0,0,1-.26.69h-.25a12,12,0,0,0,.31-1.46h.37Zm3.35.39a1.06,1.06,0,0,0,.25,0l.2-.05v.27a.64.64,0,0,1-.22.06,1.2,1.2,0,0,1-.28,0,.82.82,0,0,1-.61-.22,1,1,0,0,1-.21-.72v-2h-.47v-.19l.47-.11.12-.73h.22v.75h1v.28h-1v2C70.75,263.88,70.92,264.1,71.28,264.1Zm2.24-3a1.11,1.11,0,0,1,.8.26,1.16,1.16,0,0,1,.26.83v2.12h-.26l-.06-.53h0a1.33,1.33,0,0,1-.42.43,1.2,1.2,0,0,1-.68.16,1.07,1.07,0,0,1-.72-.22.87.87,0,0,1-.26-.66.79.79,0,0,1,.39-.72,2.18,2.18,0,0,1,1.12-.28l.57,0v-.22a.91.91,0,0,0-.19-.66.7.7,0,0,0-.54-.19,1.84,1.84,0,0,0-.47.06,4.13,4.13,0,0,0-.45.17l-.11-.27a3.12,3.12,0,0,1,.49-.18A2.51,2.51,0,0,1,73.52,261.12Zm.19,1.64a2,2,0,0,0-.9.21.66.66,0,0,0-.12,1,.81.81,0,0,0,.51.15,1,1,0,0,0,.76-.28,1.05,1.05,0,0,0,.28-.78v-.31Zm2.21-.65c0,.13,0,.26,0,.4v.4h0l.18-.21c.06-.08.13-.15.19-.22l1.19-1.31h.41l-1.25,1.36,1.36,1.8h-.41l-1.18-1.58-.48.49v1.09h-.33v-4.51h.33Zm3.8-1a1.11,1.11,0,0,1,1.08.7,1.72,1.72,0,0,1,.14.74v.24H78.69a1.38,1.38,0,0,0,.29,1,1.05,1.05,0,0,0,.84.34,2.51,2.51,0,0,0,.51-.05,2.79,2.79,0,0,0,.48-.17v.31a2.9,2.9,0,0,1-.47.16,2.79,2.79,0,0,1-.53,0,1.35,1.35,0,0,1-1.09-.43,1.69,1.69,0,0,1-.38-1.18,2.13,2.13,0,0,1,.16-.86,1.36,1.36,0,0,1,.47-.58A1.25,1.25,0,0,1,79.72,261.12Zm0,.28a.93.93,0,0,0-.7.29,1.36,1.36,0,0,0-.31.83h1.89a1.32,1.32,0,0,0-.22-.81A.73.73,0,0,0,79.71,261.4Zm5.11,2.93h-.33v-3.56c0-.12,0-.22,0-.32a1,1,0,0,1-.16.14l-.18.15-.59.46-.18-.24,1.15-.87h.28Z"/><circle class="cls-8" cx="41.2" cy="256.42" r="6.6"/><path class="cls-9" d="M51.55,309c6.61.14,13.22.09,19.83.18,5.73.08,11.46.27,17.19.49,10.54.41,21.25.86,31.69-1l.61-.12v-7.31a3.15,3.15,0,0,0-3.14-3.14H39.89a3.14,3.14,0,0,0-3.14,3.14v7C41.67,308.72,46.61,308.92,51.55,309Z"/><path d="M28.06,90.83H25.53V86.42H21.79v4.41H19.24V80.27h2.55v4.19h3.74V80.27h2.53Zm5.3.14a4.06,4.06,0,0,1-2.92-1.07,3.76,3.76,0,0,1-1.12-2.81v-.2a4.76,4.76,0,0,1,.45-2.12,3.2,3.2,0,0,1,1.3-1.42,3.9,3.9,0,0,1,2-.51,3.38,3.38,0,0,1,2.61,1,4,4,0,0,1,1,2.85v1H31.81a1.8,1.8,0,0,0,.57,1,1.73,1.73,0,0,0,1.15.38,2.18,2.18,0,0,0,1.81-.82l1.12,1.32a3.19,3.19,0,0,1-1.3,1A4.36,4.36,0,0,1,33.36,91Zm-.27-6.25c-.72,0-1.15.48-1.28,1.42h2.46V86a1.21,1.21,0,0,0-.29-.9A1.18,1.18,0,0,0,33.09,84.72Zm7.14,6.11H37.78V79.69h2.45Zm4.09,0H41.87V79.69h2.45Zm1.2-4A4.56,4.56,0,0,1,46,84.74a3.25,3.25,0,0,1,1.31-1.41,3.94,3.94,0,0,1,2-.49,3.58,3.58,0,0,1,2.77,1.09,4.18,4.18,0,0,1,1,3V87a4.07,4.07,0,0,1-1,2.92,4.11,4.11,0,0,1-5.45.07,4,4,0,0,1-1.09-2.73ZM48,87a2.91,2.91,0,0,0,.34,1.6,1.12,1.12,0,0,0,1,.51c.87,0,1.32-.67,1.34-2v-.25c0-1.4-.45-2.11-1.35-2.11S48,85.33,48,86.54Zm18.64,2.54a4,4,0,0,1-1.71,1,7.33,7.33,0,0,1-2.48.4,4.39,4.39,0,0,1-3.31-1.27,5.11,5.11,0,0,1-1.33-3.53v-.91a6.38,6.38,0,0,1,.55-2.72,4.06,4.06,0,0,1,1.58-1.79,4.42,4.42,0,0,1,2.37-.63,4.6,4.6,0,0,1,3.06.91,3.79,3.79,0,0,1,1.28,2.69H64.16a2,2,0,0,0-.57-1.27,1.83,1.83,0,0,0-1.23-.37,1.66,1.66,0,0,0-1.48.81,4.35,4.35,0,0,0-.53,2.32v.64a4.24,4.24,0,0,0,.54,2.37,1.91,1.91,0,0,0,1.7.79,2.11,2.11,0,0,0,1.48-.44V86.93H62.3V85.19h4.31Zm6,.46a2.52,2.52,0,0,1-2.09,1,2.48,2.48,0,0,1-2-.75,3.17,3.17,0,0,1-.66-2.16V83h2.44v5.1a.88.88,0,0,0,1,1,1.28,1.28,0,0,0,1.2-.61V83H75v7.85H72.72Zm7.5,1a4.07,4.07,0,0,1-2.92-1.07,3.75,3.75,0,0,1-1.11-2.81v-.2a4.76,4.76,0,0,1,.44-2.12,3.2,3.2,0,0,1,1.3-1.42,3.9,3.9,0,0,1,2-.51,3.38,3.38,0,0,1,2.61,1,4,4,0,0,1,1,2.85v1H78.6a1.8,1.8,0,0,0,.57,1,1.73,1.73,0,0,0,1.15.38,2.17,2.17,0,0,0,1.81-.82l1.12,1.32a3.19,3.19,0,0,1-1.3,1A4.3,4.3,0,0,1,80.15,91Zm-.27-6.25c-.72,0-1.14.48-1.28,1.42h2.47V86a1.1,1.1,0,0,0-1.19-1.23Zm8.67,3.9a.56.56,0,0,0-.32-.5A5.5,5.5,0,0,0,87,87.73a5.52,5.52,0,0,1-1.51-.53,2.56,2.56,0,0,1-.91-.8,2,2,0,0,1-.31-1.08,2.17,2.17,0,0,1,.89-1.78,3.68,3.68,0,0,1,2.34-.7,4.06,4.06,0,0,1,2.49.7,2.2,2.2,0,0,1,.94,1.85H88.47c0-.63-.33-.94-1-.94a1,1,0,0,0-.64.21.64.64,0,0,0-.26.53.6.6,0,0,0,.31.53,3,3,0,0,0,1,.34,7.86,7.86,0,0,1,1.23.31,2.22,2.22,0,0,1,1.77,2.18,2.06,2.06,0,0,1-1,1.75,4.14,4.14,0,0,1-2.46.67,4.32,4.32,0,0,1-1.8-.36,2.91,2.91,0,0,1-1.23-1A2.17,2.17,0,0,1,84,88.31H86.3a1,1,0,0,0,.36.8,1.53,1.53,0,0,0,.89.24,1.12,1.12,0,0,0,.75-.2A.63.63,0,0,0,88.55,88.62ZM94.9,81v2h1.29v1.7H94.9v3.59a.93.93,0,0,0,.16.61.85.85,0,0,0,.63.18,3.4,3.4,0,0,0,.61,0v1.75a4.52,4.52,0,0,1-1.38.21,2.58,2.58,0,0,1-1.86-.59,2.45,2.45,0,0,1-.6-1.81V84.68h-1V83h1V81ZM98,93.67l-1.23-.58.24-.5a3.89,3.89,0,0,0,.53-1.79V89h2v1.58a3.83,3.83,0,0,1-.42,1.69A4.46,4.46,0,0,1,98,93.67Zm-73.45,9.69H23.39v-2.93h-2.9v2.93H19.3V96.77h1.19v2.66h2.9V96.77h1.18Zm3.62-5.1a2.12,2.12,0,0,1,1.59.6,2.3,2.3,0,0,1,.59,1.67v.59H27.06a1.56,1.56,0,0,0,.38,1.07,1.35,1.35,0,0,0,1,.37,3.22,3.22,0,0,0,.86-.1,4.5,4.5,0,0,0,.8-.28v.93a3.49,3.49,0,0,1-.77.26,5.11,5.11,0,0,1-.95.08,3,3,0,0,1-1.3-.27,2.17,2.17,0,0,1-.89-.86,3,3,0,0,1-.31-1.43,2.71,2.71,0,0,1,.64-2A2.18,2.18,0,0,1,28.19,98.26Zm0,.86a1,1,0,0,0-.77.31,1.37,1.37,0,0,0-.33.88h2.15a1.44,1.44,0,0,0-.27-.85A.89.89,0,0,0,28.19,99.12Zm6-.86h.26l.25,0-.1,1.08-.22,0-.23,0a1.53,1.53,0,0,0-.7.16,1.17,1.17,0,0,0-.52.47,1.47,1.47,0,0,0-.2.79v2.6H31.54v-5h.9l.16.87h.06a2,2,0,0,1,.61-.67A1.46,1.46,0,0,1,34.16,98.26Zm3.27,0a2.12,2.12,0,0,1,1.59.6,2.3,2.3,0,0,1,.59,1.67v.59h-3.3a1.56,1.56,0,0,0,.37,1.07,1.37,1.37,0,0,0,1,.37,3.35,3.35,0,0,0,.87-.1,4.41,4.41,0,0,0,.79-.28v.93a3.41,3.41,0,0,1-.76.26,5.19,5.19,0,0,1-.95.08,3.07,3.07,0,0,1-1.31-.27,2.14,2.14,0,0,1-.88-.86,3,3,0,0,1-.32-1.43,2.76,2.76,0,0,1,.64-2A2.2,2.2,0,0,1,37.43,98.26Zm0,.86a1,1,0,0,0-.76.31,1.32,1.32,0,0,0-.34.88h2.16a1.44,1.44,0,0,0-.27-.85A.91.91,0,0,0,37.43,99.12Zm4.26-2.25A10,10,0,0,1,41.35,98q-.23.58-.45,1.08h-.84c.08-.36.17-.74.26-1.16s.15-.78.19-1.1h1.12Zm4,5a1.34,1.34,0,0,1-.54,1.15,2.61,2.61,0,0,1-1.55.39,4.7,4.7,0,0,1-.9-.07,3.56,3.56,0,0,1-.72-.23v-1a4.83,4.83,0,0,0,.81.29,3,3,0,0,0,.85.12,1.23,1.23,0,0,0,.69-.14.45.45,0,0,0,.22-.4.41.41,0,0,0-.09-.26,1,1,0,0,0-.33-.26c-.16-.09-.4-.2-.72-.34a4.63,4.63,0,0,1-.8-.38,1.44,1.44,0,0,1-.48-.47,1.31,1.31,0,0,1-.16-.69,1.15,1.15,0,0,1,.53-1,2.57,2.57,0,0,1,1.42-.35,4,4,0,0,1,.87.09,5.79,5.79,0,0,1,.83.28l-.37.86c-.24-.1-.46-.18-.68-.25a2.3,2.3,0,0,0-.69-.1c-.51,0-.76.14-.76.43a.4.4,0,0,0,.09.27,1.3,1.3,0,0,0,.34.24l.7.3a4.61,4.61,0,0,1,.77.37,1.39,1.39,0,0,1,.5.46A1.34,1.34,0,0,1,45.68,101.91Zm2.77-3.56h1.27l1,2.83a5.34,5.34,0,0,1,.16.53,3,3,0,0,1,.09.52h0c0-.15.06-.32.11-.5s.11-.37.17-.55l1-2.83H53.5L51.37,104a2.63,2.63,0,0,1-.78,1.14,1.85,1.85,0,0,1-1.21.41,2.25,2.25,0,0,1-.4,0l-.3,0v-.92l.24,0h.31a.89.89,0,0,0,.68-.25,1.7,1.7,0,0,0,.4-.63l.15-.41Zm10.27,2.5a2.71,2.71,0,0,1-.64,1.93,2.34,2.34,0,0,1-1.76.67,2.48,2.48,0,0,1-1.22-.3,2.13,2.13,0,0,1-.84-.89,3.06,3.06,0,0,1-.3-1.41,2.67,2.67,0,0,1,.63-1.91,2.33,2.33,0,0,1,1.76-.68,2.39,2.39,0,0,1,1.23.31,2.14,2.14,0,0,1,.84.87A3,3,0,0,1,58.72,100.85Zm-3.57,0a2.34,2.34,0,0,0,.27,1.23,1,1,0,0,0,.92.43,1,1,0,0,0,.9-.43,2.15,2.15,0,0,0,.29-1.23,2.1,2.1,0,0,0-.29-1.22,1,1,0,0,0-.91-.43,1,1,0,0,0-.91.43A2.28,2.28,0,0,0,55.15,100.85Zm9.22-2.5v5h-.92l-.15-.65h-.06a1.48,1.48,0,0,1-.67.57,2.43,2.43,0,0,1-.89.17,1.89,1.89,0,0,1-1.32-.43,1.85,1.85,0,0,1-.47-1.4V98.35h1.16v3c0,.75.31,1.12.93,1.12a1,1,0,0,0,1-.43,2.6,2.6,0,0,0,.26-1.28V98.35Zm4.1-.09h.26l.25,0-.1,1.08-.22,0-.23,0a1.46,1.46,0,0,0-.69.16,1.15,1.15,0,0,0-.53.47,1.47,1.47,0,0,0-.2.79v2.6H65.85v-5h.9l.16.87H67a2,2,0,0,1,.61-.67A1.48,1.48,0,0,1,68.47,98.26Zm9.57,0a1.71,1.71,0,0,1,1.28.44,1.91,1.91,0,0,1,.43,1.4v3.26H78.59v-3c0-.74-.28-1.12-.85-1.12a1,1,0,0,0-.87.4,2.17,2.17,0,0,0-.26,1.16v2.6H75.45v-3c0-.74-.29-1.12-.86-1.12a.91.91,0,0,0-.88.45,2.66,2.66,0,0,0-.24,1.26v2.45H72.31v-5h.9l.16.66h.07a1.23,1.23,0,0,1,.61-.56,2,2,0,0,1,.85-.19,2,2,0,0,1,.94.2,1.23,1.23,0,0,1,.59.58h.09a1.33,1.33,0,0,1,.65-.59A2,2,0,0,1,78,98.26Zm5.19,0a2.08,2.08,0,0,1,1.58.6,2.26,2.26,0,0,1,.6,1.67v.59H82.1a1.56,1.56,0,0,0,.38,1.07,1.34,1.34,0,0,0,1,.37,3.35,3.35,0,0,0,.87-.1,4.5,4.5,0,0,0,.8-.28v.93a3.49,3.49,0,0,1-.77.26,5.11,5.11,0,0,1-1,.08,3,3,0,0,1-1.3-.27,2.17,2.17,0,0,1-.89-.86,3,3,0,0,1-.31-1.43,2.76,2.76,0,0,1,.63-2A2.22,2.22,0,0,1,83.23,98.26Zm0,.86a1,1,0,0,0-.77.31,1.37,1.37,0,0,0-.33.88h2.15a1.44,1.44,0,0,0-.27-.85A.9.9,0,0,0,83.23,99.12Zm5,4.33a1.76,1.76,0,0,1-1.41-.65,3,3,0,0,1-.54-1.93,2.93,2.93,0,0,1,.55-2,1.76,1.76,0,0,1,1.43-.66,1.71,1.71,0,0,1,.9.21,2,2,0,0,1,.58.52h.05c0-.08,0-.22-.05-.4a4.29,4.29,0,0,1,0-.49V96.34h1.16v7H90l-.21-.66h-.05a1.93,1.93,0,0,1-.56.54A1.79,1.79,0,0,1,88.23,103.45Zm.35-.94a1,1,0,0,0,.91-.37,1.91,1.91,0,0,0,.27-1.12v-.14a2.41,2.41,0,0,0-.25-1.23,1,1,0,0,0-1-.44.92.92,0,0,0-.82.45,2.32,2.32,0,0,0-.27,1.22,2.12,2.12,0,0,0,.28,1.21A.94.94,0,0,0,88.58,102.51Zm9.59-.6a1.32,1.32,0,0,1-.55,1.15,2.57,2.57,0,0,1-1.54.39,4.7,4.7,0,0,1-.9-.07,3.86,3.86,0,0,1-.73-.23v-1a4.64,4.64,0,0,0,.82.29,2.9,2.9,0,0,0,.85.12,1.23,1.23,0,0,0,.69-.14A.46.46,0,0,0,97,102a.47.47,0,0,0-.08-.26,1.25,1.25,0,0,0-.33-.26c-.16-.09-.4-.2-.72-.34a5.16,5.16,0,0,1-.81-.38,1.44,1.44,0,0,1-.48-.47,1.41,1.41,0,0,1-.15-.69,1.14,1.14,0,0,1,.52-1,2.6,2.6,0,0,1,1.42-.35,4,4,0,0,1,.87.09,5.07,5.07,0,0,1,.83.28l-.37.86a7.08,7.08,0,0,0-.68-.25,2.24,2.24,0,0,0-.68-.1c-.51,0-.77.14-.77.43a.4.4,0,0,0,.09.27,1.3,1.3,0,0,0,.34.24c.17.08.4.18.71.3a4.49,4.49,0,0,1,.76.37,1.31,1.31,0,0,1,.5.46A1.25,1.25,0,0,1,98.17,101.91Zm3.14,1.54a2.27,2.27,0,0,1-1.7-.62,2.67,2.67,0,0,1-.62-2,3.08,3.08,0,0,1,.31-1.49,1.91,1.91,0,0,1,.86-.85,2.61,2.61,0,0,1,1.24-.28,3.49,3.49,0,0,1,.84.09,3.23,3.23,0,0,1,.63.23l-.34.91a4.17,4.17,0,0,0-.57-.18,1.87,1.87,0,0,0-.56-.09c-.81,0-1.22.55-1.22,1.66a2,2,0,0,0,.31,1.21,1.06,1.06,0,0,0,.89.4,2.37,2.37,0,0,0,.74-.1,2.88,2.88,0,0,0,.62-.28v1a2.6,2.6,0,0,1-.62.25A3.56,3.56,0,0,1,101.31,103.45ZM105.08,98a5.49,5.49,0,0,1,0,.58,3,3,0,0,1,0,.42h.08a1.48,1.48,0,0,1,.63-.56,1.83,1.83,0,0,1,.85-.19,1.9,1.9,0,0,1,1.33.44,1.8,1.8,0,0,1,.48,1.4v3.26h-1.16v-3c0-.75-.31-1.13-.92-1.13a1,1,0,0,0-1,.45,2.42,2.42,0,0,0-.26,1.26v2.45h-1.17v-7h1.17Zm6.77.25a2.12,2.12,0,0,1,1.59.6,2.26,2.26,0,0,1,.59,1.67v.59h-3.3a1.56,1.56,0,0,0,.38,1.07,1.34,1.34,0,0,0,1,.37,3.35,3.35,0,0,0,.87-.1,4.79,4.79,0,0,0,.8-.28v.93a3.68,3.68,0,0,1-.77.26,5.19,5.19,0,0,1-1,.08,3,3,0,0,1-1.3-.27,2.11,2.11,0,0,1-.89-.86,3,3,0,0,1-.32-1.43,2.76,2.76,0,0,1,.64-2A2.2,2.2,0,0,1,111.85,98.26Zm0,.86a1,1,0,0,0-.76.31,1.42,1.42,0,0,0-.34.88h2.16a1.44,1.44,0,0,0-.27-.85A.91.91,0,0,0,111.85,99.12Zm5,4.33a1.74,1.74,0,0,1-1.41-.65,3,3,0,0,1-.54-1.93,2.93,2.93,0,0,1,.55-2,1.76,1.76,0,0,1,1.43-.66,1.71,1.71,0,0,1,.9.21,2.09,2.09,0,0,1,.58.52h0a2.35,2.35,0,0,1,0-.4,4.29,4.29,0,0,1,0-.49V96.34h1.16v7h-.9l-.22-.66h0a1.85,1.85,0,0,1-.57.54A1.73,1.73,0,0,1,116.86,103.45Zm.35-.94a1,1,0,0,0,.91-.37,1.91,1.91,0,0,0,.27-1.12v-.14a2.3,2.3,0,0,0-.26-1.23,1,1,0,0,0-.94-.44.92.92,0,0,0-.82.45,2.32,2.32,0,0,0-.28,1.22,2.12,2.12,0,0,0,.29,1.21A.94.94,0,0,0,117.21,102.51Zm8.22-4.16v5h-.91l-.16-.65h-.06a1.43,1.43,0,0,1-.67.57,2.39,2.39,0,0,1-.89.17,1.89,1.89,0,0,1-1.32-.43,1.85,1.85,0,0,1-.47-1.4V98.35h1.17v3c0,.75.3,1.12.92,1.12a1,1,0,0,0,1-.43,2.49,2.49,0,0,0,.27-1.28V98.35Zm2.65,5h-1.17v-7h1.17Zm3.5-5.1a2.12,2.12,0,0,1,1.59.6,2.3,2.3,0,0,1,.59,1.67v.59h-3.31a1.61,1.61,0,0,0,.38,1.07,1.35,1.35,0,0,0,1,.37,3.35,3.35,0,0,0,.87-.1,4.41,4.41,0,0,0,.79-.28v.93a3.41,3.41,0,0,1-.76.26,5.3,5.3,0,0,1-1,.08,3,3,0,0,1-1.3-.27,2.23,2.23,0,0,1-.89-.86,3.09,3.09,0,0,1-.31-1.43,2.71,2.71,0,0,1,.64-2A2.18,2.18,0,0,1,131.58,98.26Zm0,.86a1,1,0,0,0-.77.31,1.37,1.37,0,0,0-.33.88h2.15a1.31,1.31,0,0,0-.27-.85A.88.88,0,0,0,131.58,99.12Zm3.19-.16a.64.64,0,0,1,.2-.55.78.78,0,0,1,.5-.17.8.8,0,0,1,.5.17.64.64,0,0,1,.21.55.65.65,0,0,1-.21.55.79.79,0,0,1-.5.16.77.77,0,0,1-.5-.16A.65.65,0,0,1,134.77,99Zm0,3.81a.65.65,0,0,1,.2-.55.77.77,0,0,1,.5-.16.79.79,0,0,1,.5.16.65.65,0,0,1,.21.55.65.65,0,0,1-.21.54.8.8,0,0,1-.5.17.78.78,0,0,1-.5-.17A.64.64,0,0,1,134.77,102.77Z"/><path class="cls-10" d="M1,69.5H2.58a0,0,0,0,1,0,0V93a0,0,0,0,1,0,0H1a1,1,0,0,1-1-1V70.5A1,1,0,0,1,1,69.5Z"/><path class="cls-10" d="M1,98.68H2.58a0,0,0,0,1,0,0v23.53a0,0,0,0,1,0,0H1a1,1,0,0,1-1-1V99.68a1,1,0,0,1,1-1Z"/><rect class="cls-10" x="0.36" y="47.97" width="2.22" height="10.89"/><path class="cls-11" d="M154.84,78.26V23.15A23.18,23.18,0,0,0,131.69,0h-107A23.17,23.17,0,0,0,1.58,23.15V290.41a23.17,23.17,0,0,0,23.14,23.15h107a23.18,23.18,0,0,0,23.15-23.15V115.05a1,1,0,0,0,.82-1V79.23A1,1,0,0,0,154.84,78.26Zm-9,212.15a14.16,14.16,0,0,1-14.15,14.15h-107a14.15,14.15,0,0,1-14.14-14.15V23.15A14.16,14.16,0,0,1,24.72,9h107a14.17,14.17,0,0,1,14.15,14.15Z"/><path class="cls-3" d="M131.69,2h-107A21.21,21.21,0,0,0,3.58,23.15V290.41a21.2,21.2,0,0,0,21.14,21.15h107a21.21,21.21,0,0,0,21.15-21.15V23.15A21.22,21.22,0,0,0,131.69,2Zm14.15,288.41a14.16,14.16,0,0,1-14.15,14.15h-107a14.15,14.15,0,0,1-14.14-14.15V23.15A14.16,14.16,0,0,1,24.72,9h16v1.65a8,8,0,0,0,8,8h58a9,9,0,0,0,9-9V9h16a14.17,14.17,0,0,1,14.15,14.15Z"/><rect class="cls-11" x="70.19" y="11" width="15.74" height="2" rx="0.5"/><circle class="cls-11" cx="93.97" cy="12.27" r="1.39"/></g></g></svg>