<svg xmlns="http://www.w3.org/2000/svg" viewBox="0 0 155.66 313.56"><defs><style>.cls-1{fill:none;}.cls-2{fill:#fff;}.cls-3{fill:#f8fafa;}.cls-4{fill:#54baf3;}.cls-5{fill:#d5d5d5;}.cls-6{fill:#f4f4f4;}</style></defs><g id="Layer_2" data-name="Layer 2"><g id="petsave"><path class="cls-1" d="M40.68,9h-16c-.44,0-.87,0-1.29.07H40.68Z"/><path class="cls-1" d="M23.43,304.49c.42,0,.85.07,1.29.07h107c.43,0,.86,0,1.29-.07Z"/><path class="cls-1" d="M131.69,9h-16v.07H133C132.55,9,132.12,9,131.69,9Z"/><path class="cls-2" d="M44.62,182.66a.55.55,0,0,0-.5-.25.57.57,0,0,0-.51.26,1.24,1.24,0,0,0-.17.68,1.2,1.2,0,0,0,.18.69.55.55,0,0,0,.5.27.57.57,0,0,0,.5-.26,1.23,1.23,0,0,0,.18-.7A1.18,1.18,0,0,0,44.62,182.66Z"/><path class="cls-2" d="M19.44,181.4h-.62v1.44h.62a.79.79,0,0,0,.59-.2.71.71,0,0,0,.19-.52.69.69,0,0,0-.19-.52A.81.81,0,0,0,19.44,181.4Z"/><path class="cls-2" d="M38.19,182.38a.57.57,0,0,0-.51.28,1.53,1.53,0,0,0,0,1.4.6.6,0,0,0,1,0,1.53,1.53,0,0,0,0-1.4A.57.57,0,0,0,38.19,182.38Z"/><path class="cls-2" d="M23.11,183.58l-.23,0a.81.81,0,0,0-.38.13.31.31,0,0,0-.14.29.33.33,0,0,0,.13.28.59.59,0,0,0,.34.09.68.68,0,0,0,.49-.17.57.57,0,0,0,.19-.43v-.34a.47.47,0,0,1-.17.06Z"/><polygon class="cls-2" points="86.28 259.5 85.74 257.98 85.72 257.98 85.18 259.5 86.28 259.5"/><path class="cls-2" d="M93.07,259.56c0,.51.23.95.75.95s.76-.44.76-.95-.24-1-.76-1S93.07,259.06,93.07,259.56Z"/><path class="cls-2" d="M35.48,87.31a4.07,4.07,0,0,0,2.1.55,4,4,0,0,0,2.1-.55,4.16,4.16,0,0,0,1.45-1.55,4.45,4.45,0,0,0,.55-2.21,4.38,4.38,0,0,0-.55-2.22,3.93,3.93,0,0,0-3.55-2.12,4,4,0,0,0-2.1.57A3.9,3.9,0,0,0,34,81.33a4.58,4.58,0,0,0-.53,2.22A4.66,4.66,0,0,0,34,85.76,4.1,4.1,0,0,0,35.48,87.31Z"/><path class="cls-2" d="M55.53,80.08a3.28,3.28,0,0,0-2.49-1,3.9,3.9,0,0,0-2.74,1A4.19,4.19,0,0,0,49,82.51h7.69A4.19,4.19,0,0,0,55.53,80.08Z"/><path class="cls-2" d="M90.57,87.31a4.07,4.07,0,0,0,2.1.55,4,4,0,0,0,2.1-.55,4.08,4.08,0,0,0,1.45-1.55,4.55,4.55,0,0,0,.54-2.21,4.48,4.48,0,0,0-.54-2.22,3.87,3.87,0,0,0-1.45-1.55,3.94,3.94,0,0,0-2.1-.57,4,4,0,0,0-2.1.57,4.09,4.09,0,0,0-1.48,1.55,4.58,4.58,0,0,0-.53,2.22,4.66,4.66,0,0,0,.53,2.21A4.32,4.32,0,0,0,90.57,87.31Z"/><path class="cls-2" d="M27.49,146.94a.62.62,0,0,0-.48-.19.66.66,0,0,0-.49.2.68.68,0,0,0-.21.47h1.36A.65.65,0,0,0,27.49,146.94Z"/><path class="cls-2" d="M122.09,80.08a3.28,3.28,0,0,0-2.49-1,4,4,0,0,0-2.75,1,4.24,4.24,0,0,0-1.31,2.45h7.69A4.19,4.19,0,0,0,122.09,80.08Z"/><path class="cls-2" d="M46,146.94a.61.61,0,0,0-.47-.19.69.69,0,0,0-.5.2.72.72,0,0,0-.2.47H46.2A.66.66,0,0,0,46,146.94Z"/><path class="cls-2" d="M36.68,148l-.22,0a.86.86,0,0,0-.39.13.33.33,0,0,0-.14.29.36.36,0,0,0,.13.28.63.63,0,0,0,.35.09.67.67,0,0,0,.48-.17.54.54,0,0,0,.19-.43v-.34a.49.49,0,0,1-.16.06Z"/><path class="cls-2" d="M75,258.6a.74.74,0,0,0-.74.74h1.43A.69.69,0,0,0,75,258.6Z"/><path class="cls-2" d="M79.43,259.54a1.9,1.9,0,0,1-.67.15c-.3,0-.57.13-.57.42s.22.41.53.41a.65.65,0,0,0,.71-.62Z"/><path class="cls-2" d="M56.45,259.56c0,.51.24.95.75.95s.76-.44.76-.95-.24-1-.76-1S56.45,259.06,56.45,259.56Z"/><path class="cls-2" d="M70.46,259.54a2,2,0,0,1-.67.15c-.3,0-.57.13-.57.42s.22.41.53.41a.65.65,0,0,0,.71-.62Z"/><path class="cls-2" d="M53.32,257.81v2.64h.61c.83,0,1.23-.51,1.23-1.33s-.4-1.31-1.19-1.31Z"/><path class="cls-2" d="M145.84,290.41V23.15A14.16,14.16,0,0,0,133,9.07H115.64v.58a9,9,0,0,1-9,9h-58a8,8,0,0,1-8-8V9.07H23.43A14.15,14.15,0,0,0,10.58,23.15V290.41a14.15,14.15,0,0,0,12.85,14.08H133A14.16,14.16,0,0,0,145.84,290.41ZM114.15,80.22A5.81,5.81,0,0,1,116.37,78a6.29,6.29,0,0,1,3.23-.83,5.69,5.69,0,0,1,3.09.81,5,5,0,0,1,2,2.19,7.09,7.09,0,0,1,.69,3.21,1,1,0,0,1-.3.74,1.1,1.1,0,0,1-.76.27h-8.77A4.15,4.15,0,0,0,117,87a4.6,4.6,0,0,0,3,1,4.76,4.76,0,0,0,2.67-.87,1.26,1.26,0,0,1,.74-.26,1,1,0,0,1,.72.23,1.08,1.08,0,0,1,.41.77.8.8,0,0,1-.36.71,6.3,6.3,0,0,1-2,1,6.87,6.87,0,0,1-2.21.39,7.08,7.08,0,0,1-3.42-.81,6.24,6.24,0,0,1-2.33-2.26,6.62,6.62,0,0,1-.83-3.32A6.86,6.86,0,0,1,114.15,80.22ZM100,78a1.17,1.17,0,0,1,.6-.6,1,1,0,0,1,.79-.07,1.08,1.08,0,0,1,.62.53l4,8.66,4-8.66a1.08,1.08,0,0,1,.62-.53,1.18,1.18,0,0,1,.88.07,1,1,0,0,1,.55.58,1,1,0,0,1,0,.79l-4.9,10.31a1.11,1.11,0,0,1-1.06.76,1.23,1.23,0,0,1-1.11-.76l-4.89-10.31A1,1,0,0,1,100,78ZM87.13,80.27a6.3,6.3,0,0,1,5.54-3.14A6.16,6.16,0,0,1,95.9,78a6.06,6.06,0,0,1,2.26,2.29A6.35,6.35,0,0,1,99,83.55v5.14a1.18,1.18,0,0,1-.35.86,1.13,1.13,0,0,1-.83.32,1.12,1.12,0,0,1-1.18-1.18v-.85a6.21,6.21,0,0,1-2,1.55,5.93,5.93,0,0,1-5.52-.28,6.15,6.15,0,0,1-2.12-2.29,6.92,6.92,0,0,1-.76-3.27A6.53,6.53,0,0,1,87.13,80.27ZM70.41,85.51a1.17,1.17,0,0,1,.83-.53,1.06,1.06,0,0,1,.81.14,1.29,1.29,0,0,1,.62.64,3.06,3.06,0,0,0,.9,1.06,5.25,5.25,0,0,0,1.55.79,5.94,5.94,0,0,0,1.89.3,5.73,5.73,0,0,0,2-.35,3.66,3.66,0,0,0,1.52-1,2.4,2.4,0,0,0,.58-1.64,3,3,0,0,0-1-2.19A5,5,0,0,0,77,81.54a8,8,0,0,1-4.5-1.69,4.42,4.42,0,0,1-1.64-3.48,4,4,0,0,1,.86-2.59,5.29,5.29,0,0,1,2.31-1.61,9.19,9.19,0,0,1,3.27-.56,6.29,6.29,0,0,1,3.44.86A7.16,7.16,0,0,1,83,74.73a1.41,1.41,0,0,1,.25,1,.89.89,0,0,1-.44.69,1.07,1.07,0,0,1-.94.12,1.28,1.28,0,0,1-.76-.6,4.3,4.3,0,0,0-1.5-1.55,4.59,4.59,0,0,0-2.34-.58,5.5,5.5,0,0,0-2.86.65,2.14,2.14,0,0,0-1.15,2,2.84,2.84,0,0,0,.34,1.34,3.08,3.08,0,0,0,1.32,1.08,8.87,8.87,0,0,0,2.77.65A7.14,7.14,0,0,1,82,81.19a4.69,4.69,0,0,1,1.55,3.67,4.54,4.54,0,0,1-.56,2.29,5,5,0,0,1-1.45,1.64,6.31,6.31,0,0,1-2.08,1,8.69,8.69,0,0,1-2.4.33,8.87,8.87,0,0,1-2.82-.46,7.35,7.35,0,0,1-2.33-1.3,5.09,5.09,0,0,1-1.45-1.91A1,1,0,0,1,70.41,85.51ZM60.48,78a1.13,1.13,0,0,1,.78-.28h1.06V74.36a1.18,1.18,0,0,1,2-.83,1.13,1.13,0,0,1,.32.83v3.32h2a1.14,1.14,0,0,1,.79.28,1,1,0,0,1,.3.74.89.89,0,0,1-.3.69,1.09,1.09,0,0,1-.79.28h-2v5.7a2.39,2.39,0,0,0,.51,1.55,1.56,1.56,0,0,0,1.24.62h.79a.87.87,0,0,1,.69.32,1.18,1.18,0,0,1,.3.83,1,1,0,0,1-.39.83,1.41,1.41,0,0,1-1,.33h-.42a3.87,3.87,0,0,1-2.07-.58,4.24,4.24,0,0,1-1.46-1.62,4.85,4.85,0,0,1-.53-2.28v-5.7H61.26a1.08,1.08,0,0,1-.78-.28.89.89,0,0,1-.3-.69A1,1,0,0,1,60.48,78ZM47.6,80.22A5.72,5.72,0,0,1,49.81,78,6.29,6.29,0,0,1,53,77.13a5.69,5.69,0,0,1,3.09.81,5,5,0,0,1,2,2.19,7.09,7.09,0,0,1,.69,3.21,1,1,0,0,1-.3.74,1.09,1.09,0,0,1-.76.27H49A4.15,4.15,0,0,0,50.41,87a4.6,4.6,0,0,0,3,1,4.38,4.38,0,0,0,1.45-.25,4.69,4.69,0,0,0,1.23-.62,1.21,1.21,0,0,1,.73-.26,1,1,0,0,1,.72.23,1.13,1.13,0,0,1,.42.77.83.83,0,0,1-.37.71,6.3,6.3,0,0,1-2,1,6.87,6.87,0,0,1-2.21.39A7.08,7.08,0,0,1,50,89.13a6.24,6.24,0,0,1-2.33-2.26,6.62,6.62,0,0,1-.83-3.32A6.75,6.75,0,0,1,47.6,80.22Zm-3.46,66.66a1.49,1.49,0,0,1,.55-.59,1.6,1.6,0,0,1,.83-.21,1.62,1.62,0,0,1,.77.18,1.39,1.39,0,0,1,.55.55,1.93,1.93,0,0,1,.2.92V148h-2.2a.77.77,0,0,0,.2.58.72.72,0,0,0,.53.2.8.8,0,0,0,.39-.09.49.49,0,0,0,.23-.28l.83.05a1.11,1.11,0,0,1-.48.72,1.93,1.93,0,0,1-1.84.07,1.36,1.36,0,0,1-.56-.58,2.13,2.13,0,0,1,0-1.76ZM31.23,83.55a6.64,6.64,0,0,1,.85-3.28A6.47,6.47,0,0,1,40.83,78a6.13,6.13,0,0,1,2.26,2.29A6.35,6.35,0,0,1,44,83.55a6.82,6.82,0,0,1-.79,3.27,6,6,0,0,1-2.1,2.29,5.64,5.64,0,0,1-3,.83,5.88,5.88,0,0,1-2.52-.55,6.36,6.36,0,0,1-1.94-1.55v6.23a1.14,1.14,0,0,1-1.17,1.18,1.18,1.18,0,0,1-.86-.35,1.13,1.13,0,0,1-.32-.83ZM42.33,147a.49.49,0,0,0-.36-.14.46.46,0,0,0-.38.16.58.58,0,0,0-.13.4v2h-.87v-2a.54.54,0,0,0-.14-.38.49.49,0,0,0-.36-.14.48.48,0,0,0-.37.17.59.59,0,0,0-.15.43v1.94h-.9v-3.24h.85v.58h0a.83.83,0,0,1,.34-.45,1,1,0,0,1,.56-.17,1,1,0,0,1,.57.17.76.76,0,0,1,.31.45h0a.82.82,0,0,1,.35-.45,1.15,1.15,0,0,1,.62-.17,1,1,0,0,1,.74.29,1.09,1.09,0,0,1,.28.81v2.18h-.89v-2A.51.51,0,0,0,42.33,147Zm-5.24,1.95a.83.83,0,0,1-.35.37,1.08,1.08,0,0,1-.59.14,1.2,1.2,0,0,1-.77-.24.85.85,0,0,1-.31-.72.9.9,0,0,1,.17-.57,1,1,0,0,1,.45-.3,2.38,2.38,0,0,1,.6-.13,5,5,0,0,0,.6-.09.2.2,0,0,0,.18-.2h0a.39.39,0,0,0-.12-.31.5.5,0,0,0-.36-.11.61.61,0,0,0-.38.1.47.47,0,0,0-.19.27l-.83-.07a1.08,1.08,0,0,1,.46-.7,1.62,1.62,0,0,1,1-.26,1.85,1.85,0,0,1,.67.12,1.09,1.09,0,0,1,.51.35,1,1,0,0,1,.19.63v2.18h-.85v-.45ZM33.47,147a.54.54,0,0,0-.43-.17.62.62,0,0,0-.44.17.69.69,0,0,0-.17.49v1.87h-.9v-3.24h.86v.58h0a.89.89,0,0,1,.36-.45,1.09,1.09,0,0,1,.61-.17,1,1,0,0,1,.81.33,1.21,1.21,0,0,1,.31.89v2.06h-.9v-1.9A.65.65,0,0,0,33.47,147Zm-4.37-.88H30v.57h0a.89.89,0,0,1,.3-.46.76.76,0,0,1,.48-.15,1.27,1.27,0,0,1,.28,0v.8a.6.6,0,0,0-.18,0h-.2a.66.66,0,0,0-.49.19.63.63,0,0,0-.2.48v1.83h-.9Zm-3.48.76a1.42,1.42,0,0,1,.55-.59,1.57,1.57,0,0,1,.83-.21,1.65,1.65,0,0,1,.77.18,1.39,1.39,0,0,1,.55.55,1.93,1.93,0,0,1,.2.92V148H26.31a.82.82,0,0,0,.2.58.73.73,0,0,0,.54.2.8.8,0,0,0,.39-.09.53.53,0,0,0,.23-.28l.83.05a1.11,1.11,0,0,1-.48.72,1.95,1.95,0,0,1-1.85.07,1.34,1.34,0,0,1-.55-.58,2.13,2.13,0,0,1,0-1.76Zm-2,1.25L23.1,148c-.62-.12-.94-.43-.93-.92a.86.86,0,0,1,.37-.74,1.69,1.69,0,0,1,1-.27,1.59,1.59,0,0,1,1,.26,1,1,0,0,1,.42.71l-.82,0a.48.48,0,0,0-.17-.27.63.63,0,0,0-.38-.11.68.68,0,0,0-.35.09.24.24,0,0,0-.14.23.23.23,0,0,0,.09.19.64.64,0,0,0,.32.13l.59.12c.62.13.93.42.93.88a.86.86,0,0,1-.19.56,1.17,1.17,0,0,1-.51.37,1.88,1.88,0,0,1-.74.13,1.71,1.71,0,0,1-1-.26,1,1,0,0,1-.45-.74l.88,0a.49.49,0,0,0,.2.3.75.75,0,0,0,.39.1.61.61,0,0,0,.38-.1.27.27,0,0,0,.15-.23C24.08,148.29,23.94,148.18,23.66,148.13ZM17.91,145h.91v2.73a.82.82,0,0,0,.24.61.88.88,0,0,0,.64.24.86.86,0,0,0,.64-.24.82.82,0,0,0,.24-.61V145h.91v2.81a1.48,1.48,0,0,1-.22.82,1.56,1.56,0,0,1-.63.56,2.42,2.42,0,0,1-1.88,0,1.52,1.52,0,0,1-.85-1.38Zm-.36,14.87a5.27,5.27,0,0,1,5.28-5.27H133a5.27,5.27,0,0,1,5.28,5.27v5.94a5.27,5.27,0,0,1-5.28,5.27H22.83a5.27,5.27,0,0,1-5.28-5.27Zm27.21,24.54a1.41,1.41,0,0,1-.18.27,1,1,0,0,1-.3.22,1.15,1.15,0,0,1-.44.08,1.22,1.22,0,0,1-1.14-.75,2.08,2.08,0,0,1-.18-.91,2.14,2.14,0,0,1,.18-.93,1.24,1.24,0,0,1,.48-.55,1.17,1.17,0,0,1,.65-.19,1,1,0,0,1,.46.09.85.85,0,0,1,.29.23,1.06,1.06,0,0,1,.18.27h0v-1.63h.9V185h-.89v-.52Zm-3.49-2.15a.89.89,0,0,1,.3-.46.81.81,0,0,1,.48-.15,1.27,1.27,0,0,1,.28,0v.8a.61.61,0,0,0-.17,0H42a.69.69,0,0,0-.49.18.66.66,0,0,0-.2.49V185h-.89v-3.24h.87v.57Zm-1.49,1.07a1.86,1.86,0,0,1-.19.87,1.49,1.49,0,0,1-.55.59,1.91,1.91,0,0,1-1.7,0,1.42,1.42,0,0,1-.55-.59,2.11,2.11,0,0,1,0-1.75,1.42,1.42,0,0,1,.55-.59,1.83,1.83,0,0,1,1.7,0,1.49,1.49,0,0,1,.55.59A1.87,1.87,0,0,1,39.78,183.37Zm-3.45-1.64L35.45,185h-1l-.56-2h0l-.55,2h-1l-.88-3.24h.9l.51,2.18h0l.52-2.18h.89l.53,2.17h0l.49-2.17Zm-6.46,2-.56-.12c-.63-.12-.94-.43-.94-.92a.86.86,0,0,1,.37-.74,1.69,1.69,0,0,1,1-.27,1.64,1.64,0,0,1,1,.26,1,1,0,0,1,.41.71l-.82.05a.44.44,0,0,0-.17-.27.6.6,0,0,0-.37-.11.69.69,0,0,0-.36.09.25.25,0,0,0-.14.23.23.23,0,0,0,.09.19.64.64,0,0,0,.32.13l.59.12c.62.13.93.42.93.88a.91.91,0,0,1-.18.56,1.3,1.3,0,0,1-.51.37,2,2,0,0,1-.75.13,1.71,1.71,0,0,1-1-.26,1.06,1.06,0,0,1-.45-.74l.89,0a.44.44,0,0,0,.19.3.75.75,0,0,0,.39.1.61.61,0,0,0,.38-.1.27.27,0,0,0,.15-.23C30.28,183.9,30.14,183.79,29.87,183.74Zm-3.34,0-.56-.12c-.62-.12-.94-.43-.93-.92a.86.86,0,0,1,.37-.74,1.67,1.67,0,0,1,1-.27,1.59,1.59,0,0,1,1,.26,1,1,0,0,1,.42.71l-.82.05a.45.45,0,0,0-.18-.27.58.58,0,0,0-.37-.11.65.65,0,0,0-.35.09.24.24,0,0,0-.14.23.23.23,0,0,0,.09.19.64.64,0,0,0,.32.13l.59.12c.62.13.93.42.93.88a.86.86,0,0,1-.19.56,1.17,1.17,0,0,1-.51.37,1.88,1.88,0,0,1-.74.13,1.77,1.77,0,0,1-1-.26A1,1,0,0,1,25,184l.88,0a.49.49,0,0,0,.2.3.75.75,0,0,0,.39.1.61.61,0,0,0,.38-.1.27.27,0,0,0,.15-.23C26.94,183.9,26.81,183.79,26.53,183.74Zm-3,.78a1,1,0,0,1-.35.37,1.11,1.11,0,0,1-.6.14,1.22,1.22,0,0,1-.77-.24.87.87,0,0,1-.3-.72.84.84,0,0,1,.62-.87,2.2,2.2,0,0,1,.6-.13,5,5,0,0,0,.6-.09.2.2,0,0,0,.18-.2h0a.36.36,0,0,0-.13-.31.48.48,0,0,0-.35-.11.67.67,0,0,0-.39.1.52.52,0,0,0-.19.27l-.83-.07a1.12,1.12,0,0,1,.46-.7,1.66,1.66,0,0,1,.95-.26,1.91,1.91,0,0,1,.68.12,1,1,0,0,1,.5.35,1,1,0,0,1,.2.63V185h-.85v-.45Zm-2.36-2.4a1.58,1.58,0,0,1-.18.76,1.47,1.47,0,0,1-.54.51,1.84,1.84,0,0,1-.85.18h-.77V185h-.91v-4.32h1.7a1.8,1.8,0,0,1,.84.19,1.33,1.33,0,0,1,.53.52A1.55,1.55,0,0,1,21.16,182.12Zm-3.61,13.4a5.27,5.27,0,0,1,5.28-5.27H133a5.27,5.27,0,0,1,5.28,5.27v5.94a5.27,5.27,0,0,1-5.28,5.27H22.83a5.27,5.27,0,0,1-5.28-5.27Zm-.34,30a5.27,5.27,0,0,1,5.27-5.28H132.61a5.28,5.28,0,0,1,5.28,5.28v10.55a5.28,5.28,0,0,1-5.28,5.27H22.48a5.27,5.27,0,0,1-5.27-5.27Zm86.3,34.31v0h-.39v0a1,1,0,0,1,.52-1,.64.64,0,0,0,.34-.56.53.53,0,0,0-.56-.53.54.54,0,0,0-.56.55h-.42a.92.92,0,0,1,1-.89.9.9,0,0,1,.49,1.68A.77.77,0,0,0,103.51,259.84Zm.11.7a.29.29,0,0,1-.29.29.3.3,0,0,1-.3-.29.31.31,0,0,1,.3-.3A.3.3,0,0,1,103.62,260.54Zm-2.89-1.92v-.33h.38v-.6h.38v.6H102v.33h-.54v1.47c0,.32.17.38.34.38l.17,0,.08.34a.84.84,0,0,1-.29,0,.64.64,0,0,1-.68-.65v-1.57Zm-1.47,0a.62.62,0,0,0-.64.69v1.52h-.38v-2.52h.37v.39h0a.76.76,0,0,1,.74-.42c.51,0,.85.3.85.95v1.6h-.39v-1.58A.56.56,0,0,0,99.26,258.6Zm-2.15,1.78a.76.76,0,0,1-.74.46c-.48,0-.82-.31-.82-.95v-1.6h.39v1.57a.55.55,0,0,0,.55.61.66.66,0,0,0,.65-.69v-1.49h.39v2.52h-.39v-.43ZM95,259.56a1.15,1.15,0,1,1-1.14-1.3A1.16,1.16,0,0,1,95,259.56Zm-3.72.95a.6.6,0,0,0,.61-.44h.38a.93.93,0,0,1-1,.79,1.31,1.31,0,0,1,0-2.6.92.92,0,0,1,1,.78h-.38a.6.6,0,0,0-.61-.44c-.45,0-.75.38-.75.95S90.78,260.51,91.24,260.51Zm-2.58,0a.58.58,0,0,0,.61-.44h.38a.93.93,0,0,1-1,.79,1.31,1.31,0,0,1,0-2.6.92.92,0,0,1,1,.78h-.38a.59.59,0,0,0-.61-.44c-.45,0-.75.38-.75.95S88.21,260.51,88.66,260.51Zm-1.49.3h-.42l-.34-.95H85.05l-.34.95h-.42l1.23-3.36h.42Zm-5.62-2.21a.62.62,0,0,0-.64.69v1.52h-.39v-2.52h.38v.39h0a.74.74,0,0,1,.73-.42c.51,0,.86.3.86.95v1.6h-.39v-1.58A.56.56,0,0,0,81.55,258.6Zm-2.14,1.87a.8.8,0,0,1-.75.4.79.79,0,0,1-.86-.78c0-.58.51-.68,1-.74s.65,0,.65-.23h0a.47.47,0,0,0-.53-.51.68.68,0,0,0-.66.38l-.36-.13a1,1,0,0,1,1-.59.83.83,0,0,1,.93.89v1.66h-.39v-.34Zm-4.42,0a.61.61,0,0,0,.63-.39l.38.1a1,1,0,0,1-1,.64,1.31,1.31,0,0,1,0-2.6c.53,0,1.09.32,1.09,1.25v.17H74.21A.76.76,0,0,0,75,260.51Zm-1.47-2.22-.93,2.52h-.4l-.93-2.52h.42l.7,2h0l.7-2Zm-3.08,2.18a.8.8,0,0,1-.75.4.78.78,0,0,1-.86-.78c0-.58.51-.68,1-.74s.65,0,.65-.23h0a.47.47,0,0,0-.54-.51.67.67,0,0,0-.65.38l-.37-.13a1,1,0,0,1,1-.59.83.83,0,0,1,.93.89v1.66h-.38v-.34ZM66,259.31v1.5h-.41v-3.36H66v1.49h1.79v-1.49h.41v3.36h-.41v-1.5Zm-3.64-.69v-.33h.38v-.6h.38v.6h.54v.33h-.54v1.47c0,.32.17.38.34.38l.17,0,.08.34a.84.84,0,0,1-.29,0,.64.64,0,0,1-.68-.65v-1.57ZM62,257.45v.29a1.12,1.12,0,0,1-.42.83l-.21-.17a1.15,1.15,0,0,0,.26-.65v-.3Zm-2,1.15a.63.63,0,0,0-.65.69v1.52h-.38v-2.52h.37v.39h0a.76.76,0,0,1,.74-.42c.51,0,.85.3.85.95v1.6h-.39v-1.58A.56.56,0,0,0,60,258.6Zm-1.63,1a1.15,1.15,0,1,1-1.14-1.3A1.16,1.16,0,0,1,58.34,259.56Zm-2.79-.44a1.51,1.51,0,0,1-1.6,1.69h-1v-3.36H54A1.49,1.49,0,0,1,55.55,259.12ZM17.89,280.26V269.71a5.28,5.28,0,0,1,5.27-5.28H133.29a5.29,5.29,0,0,1,5.28,5.28v10.55a5.29,5.29,0,0,1-5.28,5.28H23.16A5.28,5.28,0,0,1,17.89,280.26Z"/><path d="M43.37,149.36v-2.18a1.09,1.09,0,0,0-.28-.81,1,1,0,0,0-.74-.29,1.15,1.15,0,0,0-.62.17.82.82,0,0,0-.35.45h0a.76.76,0,0,0-.31-.45,1,1,0,0,0-.57-.17,1,1,0,0,0-.56.17.83.83,0,0,0-.34.45h0v-.58h-.85v3.24h.9v-1.94a.59.59,0,0,1,.15-.43.48.48,0,0,1,.37-.17.49.49,0,0,1,.36.14.54.54,0,0,1,.14.38v2h.87v-2a.58.58,0,0,1,.13-.4.46.46,0,0,1,.38-.16.49.49,0,0,1,.36.14.51.51,0,0,1,.15.4v2Z"/><path d="M44.7,149.22a1.93,1.93,0,0,0,1.84-.07,1.11,1.11,0,0,0,.48-.72l-.83-.05a.49.49,0,0,1-.23.28.8.8,0,0,1-.39.09.72.72,0,0,1-.53-.2.77.77,0,0,1-.2-.58H47v-.24a1.93,1.93,0,0,0-.2-.92,1.39,1.39,0,0,0-.55-.55,1.62,1.62,0,0,0-.77-.18,1.6,1.6,0,0,0-.83.21,1.49,1.49,0,0,0-.55.59,2.13,2.13,0,0,0,0,1.76A1.36,1.36,0,0,0,44.7,149.22ZM45,147a.69.69,0,0,1,.5-.2.61.61,0,0,1,.47.19.66.66,0,0,1,.19.48H44.84A.72.72,0,0,1,45,147Z"/><path d="M38,149.36v-2.18a1,1,0,0,0-.19-.63,1.09,1.09,0,0,0-.51-.35,1.85,1.85,0,0,0-.67-.12,1.62,1.62,0,0,0-1,.26,1.08,1.08,0,0,0-.46.7l.83.07a.47.47,0,0,1,.19-.27.61.61,0,0,1,.38-.1.5.5,0,0,1,.36.11.39.39,0,0,1,.12.31h0a.2.2,0,0,1-.18.2,5,5,0,0,1-.6.09,2.38,2.38,0,0,0-.6.13,1,1,0,0,0-.45.3.9.9,0,0,0-.17.57.85.85,0,0,0,.31.72,1.2,1.2,0,0,0,.77.24,1.08,1.08,0,0,0,.59-.14.83.83,0,0,0,.35-.37h0v.45Zm-.89-1.16a.54.54,0,0,1-.19.43.67.67,0,0,1-.48.17.63.63,0,0,1-.35-.09.36.36,0,0,1-.13-.28.33.33,0,0,1,.14-.29.86.86,0,0,1,.39-.13l.22,0,.24-.05a.49.49,0,0,0,.16-.06Z"/><path d="M26.17,149.22a1.95,1.95,0,0,0,1.85-.07,1.11,1.11,0,0,0,.48-.72l-.83-.05a.53.53,0,0,1-.23.28.8.8,0,0,1-.39.09.73.73,0,0,1-.54-.2.82.82,0,0,1-.2-.58h2.21v-.24a1.93,1.93,0,0,0-.2-.92,1.39,1.39,0,0,0-.55-.55,1.65,1.65,0,0,0-.77-.18,1.57,1.57,0,0,0-.83.21,1.42,1.42,0,0,0-.55.59,2.13,2.13,0,0,0,0,1.76A1.34,1.34,0,0,0,26.17,149.22Zm.35-2.27a.66.66,0,0,1,.49-.2.62.62,0,0,1,.48.19.65.65,0,0,1,.18.48H26.31A.68.68,0,0,1,26.52,147Z"/><path d="M34.52,149.36V147.3a1.21,1.21,0,0,0-.31-.89,1,1,0,0,0-.81-.33,1.09,1.09,0,0,0-.61.17.89.89,0,0,0-.36.45h0v-.58h-.86v3.24h.9v-1.87a.69.69,0,0,1,.17-.49.62.62,0,0,1,.44-.17.54.54,0,0,1,.43.17.65.65,0,0,1,.15.46v1.9Z"/><path d="M18.76,149.23a2.42,2.42,0,0,0,1.88,0,1.56,1.56,0,0,0,.63-.56,1.48,1.48,0,0,0,.22-.82V145h-.91v2.73a.82.82,0,0,1-.24.61.86.86,0,0,1-.64.24.88.88,0,0,1-.64-.24.82.82,0,0,1-.24-.61V145h-.91v2.81a1.52,1.52,0,0,0,.85,1.38Z"/><path d="M23.93,148.68a.61.61,0,0,1-.38.1.75.75,0,0,1-.39-.1.49.49,0,0,1-.2-.3l-.88,0a1,1,0,0,0,.45.74,1.71,1.71,0,0,0,1,.26,1.88,1.88,0,0,0,.74-.13,1.17,1.17,0,0,0,.51-.37.86.86,0,0,0,.19-.56c0-.46-.31-.75-.93-.88l-.59-.12a.64.64,0,0,1-.32-.13.23.23,0,0,1-.09-.19.24.24,0,0,1,.14-.23.68.68,0,0,1,.35-.09.63.63,0,0,1,.38.11.48.48,0,0,1,.17.27l.82,0a1,1,0,0,0-.42-.71,1.59,1.59,0,0,0-1-.26,1.69,1.69,0,0,0-1,.27.86.86,0,0,0-.37.74c0,.49.31.8.93.92l.56.12c.28.05.42.16.42.32A.27.27,0,0,1,23.93,148.68Z"/><path d="M30,147.53a.63.63,0,0,1,.2-.48.66.66,0,0,1,.49-.19h.2a.6.6,0,0,1,.18,0v-.8a1.27,1.27,0,0,0-.28,0,.76.76,0,0,0-.48.15.89.89,0,0,0-.3.46h0v-.57H29.1v3.24H30Z"/><polygon points="34.9 183.9 34.37 181.73 33.48 181.73 32.96 183.91 32.93 183.91 32.42 181.73 31.52 181.73 32.4 184.97 33.35 184.97 33.9 182.94 33.94 182.94 34.5 184.97 35.45 184.97 36.33 181.73 35.42 181.73 34.93 183.9 34.9 183.9"/><path d="M40.37,181.73V185h.89v-1.83a.66.66,0,0,1,.2-.49.69.69,0,0,1,.49-.18h.21a.61.61,0,0,1,.17,0v-.8a1.27,1.27,0,0,0-.28,0,.81.81,0,0,0-.48.15.89.89,0,0,0-.3.46h0v-.57Z"/><path d="M45.68,185v-4.32h-.9v1.63h0a1.06,1.06,0,0,0-.18-.27.85.85,0,0,0-.29-.23,1,1,0,0,0-.46-.09,1.17,1.17,0,0,0-.65.19,1.24,1.24,0,0,0-.48.55,2.14,2.14,0,0,0-.18.93,2.08,2.08,0,0,0,.18.91,1.22,1.22,0,0,0,1.14.75,1.15,1.15,0,0,0,.44-.08,1,1,0,0,0,.3-.22,1.41,1.41,0,0,0,.18-.27h0V185Zm-1.06-.92a.57.57,0,0,1-.5.26.55.55,0,0,1-.5-.27,1.2,1.2,0,0,1-.18-.69,1.24,1.24,0,0,1,.17-.68.57.57,0,0,1,.51-.26.55.55,0,0,1,.5.25,1.18,1.18,0,0,1,.18.69A1.23,1.23,0,0,1,44.62,184.05Z"/><path d="M39,181.9a1.83,1.83,0,0,0-1.7,0,1.42,1.42,0,0,0-.55.59,2.11,2.11,0,0,0,0,1.75,1.42,1.42,0,0,0,.55.59,1.91,1.91,0,0,0,1.7,0,1.49,1.49,0,0,0,.55-.59,2.11,2.11,0,0,0,0-1.75A1.49,1.49,0,0,0,39,181.9Zm-.34,2.16a.6.6,0,0,1-1,0,1.53,1.53,0,0,1,0-1.4.6.6,0,0,1,1,0,1.53,1.53,0,0,1,0,1.4Z"/><path d="M24.4,185v-2.18a1,1,0,0,0-.2-.63,1,1,0,0,0-.5-.35,1.91,1.91,0,0,0-.68-.12,1.66,1.66,0,0,0-.95.26,1.12,1.12,0,0,0-.46.7l.83.07a.52.52,0,0,1,.19-.27.67.67,0,0,1,.39-.1.48.48,0,0,1,.35.11.36.36,0,0,1,.13.31h0a.2.2,0,0,1-.18.2,5,5,0,0,1-.6.09,2.2,2.2,0,0,0-.6.13.84.84,0,0,0-.62.87.87.87,0,0,0,.3.72,1.22,1.22,0,0,0,.77.24,1.11,1.11,0,0,0,.6-.14,1,1,0,0,0,.35-.37h0V185Zm-.89-1.16a.57.57,0,0,1-.19.43.68.68,0,0,1-.49.17.59.59,0,0,1-.34-.09.33.33,0,0,1-.13-.28.31.31,0,0,1,.14-.29.81.81,0,0,1,.38-.13l.23,0,.23-.05a.47.47,0,0,0,.17-.06Z"/><path d="M20.45,180.84a1.8,1.8,0,0,0-.84-.19h-1.7V185h.91v-1.4h.77a1.84,1.84,0,0,0,.85-.18,1.47,1.47,0,0,0,.54-.51,1.58,1.58,0,0,0,.18-.76,1.55,1.55,0,0,0-.18-.76A1.33,1.33,0,0,0,20.45,180.84Zm-.42,1.8a.79.79,0,0,1-.59.2h-.62V181.4h.62a.81.81,0,0,1,.59.2.69.69,0,0,1,.19.52A.71.71,0,0,1,20,182.64Z"/><path d="M30.13,184.29a.61.61,0,0,1-.38.1.75.75,0,0,1-.39-.1.44.44,0,0,1-.19-.3l-.89,0a1.06,1.06,0,0,0,.45.74,1.71,1.71,0,0,0,1,.26,2,2,0,0,0,.75-.13,1.3,1.3,0,0,0,.51-.37.91.91,0,0,0,.18-.56c0-.46-.31-.75-.93-.88l-.59-.12a.64.64,0,0,1-.32-.13.23.23,0,0,1-.09-.19.25.25,0,0,1,.14-.23.69.69,0,0,1,.36-.09.6.6,0,0,1,.37.11.44.44,0,0,1,.17.27l.82-.05a1,1,0,0,0-.41-.71,1.64,1.64,0,0,0-1-.26,1.69,1.69,0,0,0-1,.27.86.86,0,0,0-.37.74c0,.49.31.8.94.92l.56.12c.27,0,.41.16.41.32A.27.27,0,0,1,30.13,184.29Z"/><path d="M26.8,184.29a.61.61,0,0,1-.38.1.75.75,0,0,1-.39-.1.49.49,0,0,1-.2-.3L25,184a1,1,0,0,0,.44.74,1.77,1.77,0,0,0,1,.26,1.88,1.88,0,0,0,.74-.13,1.17,1.17,0,0,0,.51-.37.86.86,0,0,0,.19-.56c0-.46-.31-.75-.93-.88l-.59-.12a.64.64,0,0,1-.32-.13.23.23,0,0,1-.09-.19.24.24,0,0,1,.14-.23.65.65,0,0,1,.35-.09.58.58,0,0,1,.37.11.45.45,0,0,1,.18.27l.82-.05a1,1,0,0,0-.42-.71,1.59,1.59,0,0,0-1-.26,1.67,1.67,0,0,0-1,.27.86.86,0,0,0-.37.74c0,.49.31.8.93.92l.56.12c.28,0,.41.16.42.32A.27.27,0,0,1,26.8,184.29Z"/><path class="cls-3" d="M29.22,162.7a.66.66,0,0,0-.51-.21.7.7,0,0,0-.38.1.78.78,0,0,0-.26.28.88.88,0,0,0-.1.36H29.4A.79.79,0,0,0,29.22,162.7Z"/><path class="cls-3" d="M25.54,164.27a.71.71,0,0,0,.43.13.7.7,0,0,0,.42-.13.81.81,0,0,0,.25-.35,1.45,1.45,0,0,0,.08-.47,1.4,1.4,0,0,0-.08-.47.78.78,0,0,0-.25-.36.64.64,0,0,0-.42-.13.65.65,0,0,0-.43.13.86.86,0,0,0-.25.36,1.4,1.4,0,0,0-.08.47,1.45,1.45,0,0,0,.08.47A.9.9,0,0,0,25.54,164.27Z"/><path class="cls-3" d="M22.83,171.12H133a5.27,5.27,0,0,0,5.28-5.27v-5.94a5.27,5.27,0,0,0-5.28-5.27H22.83a5.27,5.27,0,0,0-5.28,5.27v5.94A5.27,5.27,0,0,0,22.83,171.12Zm14.37-6.43h-.39v-2.51h.39Zm2.43-3.35H40v1.23h0a.74.74,0,0,1,.27-.31.85.85,0,0,1,.48-.12.84.84,0,0,1,.62.24.94.94,0,0,1,.23.71v1.6h-.38v-1.57a.61.61,0,0,0-.16-.46.55.55,0,0,0-.43-.17.64.64,0,0,0-.47.18.66.66,0,0,0-.19.51v1.51h-.39Zm-1.94.84h.38v-.61h.39v.61H39v.32h-.54V164a.55.55,0,0,0,0,.25.25.25,0,0,0,.12.11l.17,0h.1l.07,0,.07.35-.11,0-.17,0a1,1,0,0,1-.33-.07.59.59,0,0,1-.25-.22.61.61,0,0,1-.11-.36V162.5h-.38Zm-.88-.87a.27.27,0,0,1,.19-.08.3.3,0,0,1,.2.08.25.25,0,0,1,.08.18.26.26,0,0,1-.08.19.3.3,0,0,1-.2.08.27.27,0,0,1-.19-.08.26.26,0,0,1-.08-.19A.25.25,0,0,1,36.81,161.31Zm-4,.87h.37v.39h0a.62.62,0,0,1,.26-.31.7.7,0,0,1,.42-.12.69.69,0,0,1,.41.12.67.67,0,0,1,.26.31h0a.72.72,0,0,1,.29-.31.85.85,0,0,1,.46-.12.78.78,0,0,1,.56.21.9.9,0,0,1,.21.66v1.68h-.39V163a.48.48,0,0,0-.15-.4.56.56,0,0,0-.36-.12.53.53,0,0,0-.41.16.56.56,0,0,0-.14.4v1.64h-.4V163a.45.45,0,0,0-.14-.35.48.48,0,0,0-.36-.13.57.57,0,0,0-.28.08.74.74,0,0,0-.21.22.73.73,0,0,0-.08.33v1.57H32.8Zm-1.36,1.48-.42-.1a1,1,0,0,1-.51-.26.66.66,0,0,1,0-.81.76.76,0,0,1,.33-.25,1.06,1.06,0,0,1,.48-.1.91.91,0,0,1,.58.17.84.84,0,0,1,.31.43l-.35.1a.66.66,0,0,0-.17-.25.54.54,0,0,0-.37-.11.67.67,0,0,0-.39.1.32.32,0,0,0-.15.27.28.28,0,0,0,.1.23,1,1,0,0,0,.33.14l.38.09c.44.11.66.34.66.68a.65.65,0,0,1-.12.39.93.93,0,0,1-.34.27,1.38,1.38,0,0,1-.52.1,1.15,1.15,0,0,1-.64-.17.76.76,0,0,1-.32-.49l.37-.09a.52.52,0,0,0,.58.4.69.69,0,0,0,.43-.11.33.33,0,0,0,.16-.28C31.81,163.83,31.69,163.72,31.44,163.66Zm-3.72-.89a1.13,1.13,0,0,1,.4-.46,1.07,1.07,0,0,1,.59-.17,1,1,0,0,1,.39.07.84.84,0,0,1,.35.21,1,1,0,0,1,.25.39,1.69,1.69,0,0,1,.1.59v.17H28a.85.85,0,0,0,.23.61.82.82,0,0,0,.95.12.59.59,0,0,0,.23-.3l.38.11a.85.85,0,0,1-.36.46,1.11,1.11,0,0,1-.65.18,1.21,1.21,0,0,1-.62-.16,1.08,1.08,0,0,1-.41-.46,1.59,1.59,0,0,1-.14-.68A1.65,1.65,0,0,1,27.72,162.77Zm-2.75,0a1.06,1.06,0,0,1,.4-.46,1.19,1.19,0,0,1,1.19,0,1.06,1.06,0,0,1,.4.46,1.52,1.52,0,0,1,.15.69,1.48,1.48,0,0,1-.15.68,1,1,0,0,1-.4.45,1.13,1.13,0,0,1-1.19,0,1,1,0,0,1-.4-.45,1.48,1.48,0,0,1-.14-.68A1.52,1.52,0,0,1,25,162.76Zm-1.13-1.45a.3.3,0,0,1,.2-.08.27.27,0,0,1,.19.08.22.22,0,0,1,.08.18.22.22,0,0,1-.08.19.27.27,0,0,1-.19.08.3.3,0,0,1-.2-.08.26.26,0,0,1-.08-.19A.25.25,0,0,1,23.84,161.31Zm-.41,4h.08a.32.32,0,0,0,.26-.11.5.5,0,0,0,.08-.29v-2.7h.38v2.7a.81.81,0,0,1-.17.55.68.68,0,0,1-.55.21h-.08Z"/><path class="cls-3" d="M22.83,206.73H133a5.27,5.27,0,0,0,5.28-5.27v-5.94a5.27,5.27,0,0,0-5.28-5.27H22.83a5.27,5.27,0,0,0-5.28,5.27v5.94A5.27,5.27,0,0,0,22.83,206.73Zm19.38-9.17.16-.28.61.39,0-.72h.32l0,.72.61-.39.16.28-.64.33.64.33-.16.28-.61-.39,0,.72H43l0-.72-.61.39-.16-.28.65-.33Zm-2.3,0,.15-.28.61.39,0-.72H41l0,.72.61-.39.15.28-.64.33.64.33-.15.28-.61-.39,0,.72h-.31l0-.72-.61.39-.15-.28.64-.33Zm-2.31,0,.16-.28.61.39,0-.72h.31l0,.72.61-.39.15.28-.64.33.64.33-.15.28-.61-.39,0,.72h-.31l0-.72-.61.39-.16-.28.64-.33Zm-2.31,0,.16-.28.61.39,0-.72h.32l0,.72.61-.39.16.28-.65.33.65.33-.16.28-.61-.39,0,.72H36l0-.72-.61.39-.16-.28.64-.33Zm-2.31,0,.16-.28.61.39,0-.72H34l0,.72.61-.39.16.28-.64.33.64.33-.16.28-.61-.39,0,.72h-.32l0-.72-.61.39-.16-.28.64-.33Zm-2.31,0,.16-.28.61.39,0-.72h.32l0,.72.61-.39.16.28-.64.33.64.33-.16.28-.61-.39,0,.72h-.32l0-.72-.61.39-.16-.28.65-.33Zm-2.3,0,.15-.28.61.39,0-.72h.31l0,.72.6-.39.16.28-.64.33.64.33-.16.28-.6-.39,0,.72h-.31l0-.72-.61.39-.15-.28.64-.33Zm-2.31,0,.16-.28.6.39,0-.72h.31l0,.72.61-.39.15.28-.64.33.64.33-.15.28-.61-.39,0,.72H26.8l0-.72-.6.39-.16-.28.64-.33Zm-2.31,0,.16-.28.61.39,0-.72h.32l0,.72.61-.39.16.28-.65.33.65.33-.16.28-.61-.39,0,.72h-.32l0-.72-.61.39-.16-.28.64-.33Z"/><path class="cls-4" d="M74.32,232.15a.54.54,0,0,0,.5-.28,1.28,1.28,0,0,0,.17-.7,1.25,1.25,0,0,0-.17-.7.54.54,0,0,0-.5-.28.57.57,0,0,0-.52.28,1.34,1.34,0,0,0-.17.7,1.37,1.37,0,0,0,.17.7A.57.57,0,0,0,74.32,232.15Z"/><path class="cls-4" d="M22.48,241.35H132.61a5.28,5.28,0,0,0,5.28-5.27V225.53a5.28,5.28,0,0,0-5.28-5.28H22.48a5.27,5.27,0,0,0-5.27,5.28v10.55A5.27,5.27,0,0,0,22.48,241.35Zm60.8-11.81h.86v.57h0a.91.91,0,0,1,.36-.44,1.07,1.07,0,0,1,.61-.17,1,1,0,0,1,.81.33,1.25,1.25,0,0,1,.31.89v2.06h-.9v-1.9a.65.65,0,0,0-.15-.46.54.54,0,0,0-.43-.17.6.6,0,0,0-.44.17.69.69,0,0,0-.17.49v1.87h-.9Zm-1.64-1.08h.91v4.32h-.91Zm-5.09,1.78a1.24,1.24,0,0,1,.48-.55,1.15,1.15,0,0,1,.65-.19,1.08,1.08,0,0,1,.46.09.85.85,0,0,1,.29.23.81.81,0,0,1,.17.27h0v-.55h.89v3.27a1.15,1.15,0,0,1-.2.69,1.24,1.24,0,0,1-.56.42,2.11,2.11,0,0,1-.82.14,1.8,1.8,0,0,1-1-.26,1,1,0,0,1-.45-.64l.83-.11a.57.57,0,0,0,.21.26.84.84,0,0,0,.46.11.76.76,0,0,0,.48-.15.53.53,0,0,0,.19-.47v-.59h0a.86.86,0,0,1-.31.36,1,1,0,0,1-.61.16,1.25,1.25,0,0,1-.66-.17,1.16,1.16,0,0,1-.48-.52,2.4,2.4,0,0,1,0-1.8Zm-3.64.06a1.49,1.49,0,0,1,.55-.59,1.83,1.83,0,0,1,1.7,0,1.42,1.42,0,0,1,.55.59,2,2,0,0,1,0,1.75,1.49,1.49,0,0,1-.55.59,1.91,1.91,0,0,1-1.7,0,1.56,1.56,0,0,1-.55-.59,2.11,2.11,0,0,1,0-1.75Zm-3.41-1.84h.91V232h1.85v.75H69.5Z"/><path class="cls-4" d="M78,232.06a.59.59,0,0,0,.5-.24,1.09,1.09,0,0,0,.18-.67,1.16,1.16,0,0,0-.18-.68.58.58,0,0,0-.5-.25.56.56,0,0,0-.51.26,1.15,1.15,0,0,0-.17.67,1.13,1.13,0,0,0,.17.67A.6.6,0,0,0,78,232.06Z"/><rect class="cls-2" x="81.64" y="228.46" width="0.91" height="4.32"/><path class="cls-2" d="M77,232.56a1.25,1.25,0,0,0,.66.17,1,1,0,0,0,.61-.16.86.86,0,0,0,.31-.36h0v.59a.53.53,0,0,1-.19.47.76.76,0,0,1-.48.15.84.84,0,0,1-.46-.11.57.57,0,0,1-.21-.26l-.83.11a1,1,0,0,0,.45.64,1.8,1.8,0,0,0,1,.26,2.11,2.11,0,0,0,.82-.14,1.24,1.24,0,0,0,.56-.42,1.15,1.15,0,0,0,.2-.69v-3.27h-.89v.55h0a.81.81,0,0,0-.17-.27.85.85,0,0,0-.29-.23,1.08,1.08,0,0,0-.46-.09,1.15,1.15,0,0,0-.65.19,1.24,1.24,0,0,0-.48.55,2.4,2.4,0,0,0,0,1.8A1.16,1.16,0,0,0,77,232.56Zm.44-2.08a.56.56,0,0,1,.51-.26.58.58,0,0,1,.5.25,1.16,1.16,0,0,1,.18.68,1.09,1.09,0,0,1-.18.67.59.59,0,0,1-.5.24.6.6,0,0,1-.51-.24,1.13,1.13,0,0,1-.17-.67A1.15,1.15,0,0,1,77.46,230.48Z"/><path class="cls-2" d="M84.18,230.91a.69.69,0,0,1,.17-.49.6.6,0,0,1,.44-.17.54.54,0,0,1,.43.17.65.65,0,0,1,.15.46v1.9h.9v-2.06a1.25,1.25,0,0,0-.31-.89,1,1,0,0,0-.81-.33,1.07,1.07,0,0,0-.61.17.91.91,0,0,0-.36.44h0v-.57h-.86v3.24h.9Z"/><polygon class="cls-2" points="72.26 232.03 70.41 232.03 70.41 228.46 69.5 228.46 69.5 232.78 72.26 232.78 72.26 232.03"/><path class="cls-2" d="M73.46,232.64a1.91,1.91,0,0,0,1.7,0,1.49,1.49,0,0,0,.55-.59,2,2,0,0,0,0-1.75,1.42,1.42,0,0,0-.55-.59,1.83,1.83,0,0,0-1.7,0,1.49,1.49,0,0,0-.55.59,2.11,2.11,0,0,0,0,1.75A1.56,1.56,0,0,0,73.46,232.64Zm.34-2.17a.57.57,0,0,1,.52-.28.54.54,0,0,1,.5.28,1.25,1.25,0,0,1,.17.7,1.28,1.28,0,0,1-.17.7.54.54,0,0,1-.5.28.57.57,0,0,1-.52-.28,1.37,1.37,0,0,1-.17-.7A1.34,1.34,0,0,1,73.8,230.47Z"/><path d="M72,274.35a.68.68,0,0,0-.69.67H72.7A.65.65,0,0,0,72,274.35Z"/><path d="M86.56,274.35a.69.69,0,0,0-.7.67h1.36A.64.64,0,0,0,86.56,274.35Z"/><path d="M75.6,276.24c.44,0,.68-.33.68-.91s-.24-.93-.68-.93-.68.38-.68.93S75.16,276.24,75.6,276.24Z"/><path d="M69.06,274.06c0-.43-.25-.67-.78-.67h-.61v1.31h.62C68.81,274.7,69.06,274.48,69.06,274.06Z"/><path d="M133.29,285.54a5.29,5.29,0,0,0,5.28-5.28V269.71a5.29,5.29,0,0,0-5.28-5.28H23.16a5.28,5.28,0,0,0-5.27,5.28v10.55a5.28,5.28,0,0,0,5.27,5.28ZM78.78,277h-.9v-3.23h.9Zm9.87-3.23h.87v.56h0a.77.77,0,0,1,.77-.61,1.36,1.36,0,0,1,.29,0v.8a1.46,1.46,0,0,0-.38-.05.65.65,0,0,0-.69.67V277h-.9Zm-2.11-.05a1.48,1.48,0,0,1,1.53,1.65v.24H85.86a.7.7,0,0,0,.73.78.63.63,0,0,0,.63-.38l.83.06a1.36,1.36,0,0,1-1.47,1A1.52,1.52,0,0,1,85,275.36,1.54,1.54,0,0,1,86.54,273.68Zm-3.94.05h.45V273h.89v.78h.61v.67h-.61V276c0,.25.13.31.31.31a1.06,1.06,0,0,0,.22,0l.14.67a1.68,1.68,0,0,1-.48.09c-.66,0-1.09-.29-1.08-.92V274.4H82.6Zm-1.66,2-.56-.11c-.63-.13-.94-.44-.94-.93s.55-1,1.37-1,1.3.37,1.38,1l-.82.05a.5.5,0,0,0-.54-.38c-.28,0-.5.13-.5.32s.11.26.41.33l.59.11c.63.13.93.41.94.88,0,.64-.61,1.07-1.45,1.07s-1.38-.39-1.46-1l.88,0a.53.53,0,0,0,.59.4c.31,0,.52-.14.52-.33S81.22,275.79,80.94,275.73Zm-2.61-3.33a.47.47,0,0,1,.49.45.49.49,0,0,1-1,0A.47.47,0,0,1,78.33,272.4Zm-3,1.28a1,1,0,0,1,.92.59h0v-.54h.89V277c0,.83-.66,1.25-1.59,1.25s-1.37-.39-1.47-.9l.83-.11c.07.2.27.37.67.37s.67-.17.67-.62v-.59h0a.93.93,0,0,1-.92.53c-.73,0-1.31-.5-1.31-1.58S74.61,273.68,75.32,273.68Zm-3.3,0a1.48,1.48,0,0,1,1.52,1.65v.24h-2.2a.7.7,0,0,0,.73.78.61.61,0,0,0,.62-.38l.83.06a1.34,1.34,0,0,1-1.47,1,1.52,1.52,0,0,1-1.6-1.67A1.54,1.54,0,0,1,72,273.68Zm-5.27-1h1.71A1.36,1.36,0,0,1,70,274.06a1.25,1.25,0,0,1-.76,1.23l.92,1.67h-1l-.82-1.53h-.66V277h-.92Z"/><path class="cls-2" d="M86.58,277a1.36,1.36,0,0,0,1.47-1l-.83-.06a.63.63,0,0,1-.63.38.7.7,0,0,1-.73-.78h2.21v-.24a1.48,1.48,0,0,0-1.53-1.65A1.54,1.54,0,0,0,85,275.36,1.52,1.52,0,0,0,86.58,277Zm0-2.68a.64.64,0,0,1,.66.67H85.86A.69.69,0,0,1,86.56,274.35Z"/><path class="cls-2" d="M89.55,275.13a.65.65,0,0,1,.69-.67,1.46,1.46,0,0,1,.38.05v-.8a1.36,1.36,0,0,0-.29,0,.77.77,0,0,0-.77.61h0v-.56h-.87V277h.9Z"/><path class="cls-2" d="M78.33,273.31a.48.48,0,0,0,.49-.46.49.49,0,0,0-1,0A.48.48,0,0,0,78.33,273.31Z"/><path class="cls-2" d="M67.67,275.43h.66l.82,1.53h1l-.92-1.67a1.25,1.25,0,0,0,.76-1.23,1.36,1.36,0,0,0-1.54-1.41H66.75V277h.92Zm0-2h.61c.53,0,.78.24.78.67s-.25.64-.77.64h-.62Z"/><rect class="cls-2" x="77.88" y="273.73" width="0.9" height="3.24"/><path class="cls-2" d="M83.05,276.09c0,.63.42.94,1.08.92a1.68,1.68,0,0,0,.48-.09l-.14-.67a1.06,1.06,0,0,1-.22,0c-.18,0-.31-.06-.31-.31V274.4h.61v-.67h-.61V273h-.89v.78H82.6v.67h.45Z"/><path class="cls-2" d="M72.05,277a1.34,1.34,0,0,0,1.47-1l-.83-.06a.61.61,0,0,1-.62.38.7.7,0,0,1-.73-.78h2.2v-.24A1.48,1.48,0,0,0,72,273.68a1.54,1.54,0,0,0-1.57,1.68A1.52,1.52,0,0,0,72.05,277Zm0-2.68a.65.65,0,0,1,.67.67H71.34A.68.68,0,0,1,72,274.35Z"/><path class="cls-2" d="M75.32,276.92a.93.93,0,0,0,.92-.53h0V277c0,.45-.28.62-.67.62s-.6-.17-.67-.37l-.83.11c.1.51.6.9,1.47.9s1.59-.42,1.59-1.25v-3.26h-.89v.54h0a1,1,0,0,0-.92-.59c-.71,0-1.31.56-1.31,1.66S74.59,276.92,75.32,276.92Zm.28-2.52c.44,0,.68.37.68.93s-.24.91-.68.91-.68-.35-.68-.91S75.16,274.4,75.6,274.4Z"/><path class="cls-2" d="M80.83,276.38a.53.53,0,0,1-.59-.4l-.88,0c.08.61.61,1,1.46,1s1.44-.43,1.45-1.07c0-.47-.31-.75-.94-.88l-.59-.11c-.3-.07-.41-.17-.41-.33s.22-.32.5-.32a.5.5,0,0,1,.54.38l.82-.05c-.08-.6-.56-1-1.38-1s-1.37.39-1.37,1,.31.8.94.93l.56.11c.28.06.41.16.41.32S81.14,276.38,80.83,276.38Z"/><path d="M82.52,260.81v-1.6c0-.65-.35-.95-.86-.95a.74.74,0,0,0-.73.42h0v-.39h-.38v2.52h.39v-1.52a.62.62,0,0,1,.64-.69.56.56,0,0,1,.58.63v1.58Z"/><path d="M88.66,258.6a.59.59,0,0,1,.61.44h.38a.92.92,0,0,0-1-.78,1.31,1.31,0,0,0,0,2.6.93.93,0,0,0,1-.79h-.38a.58.58,0,0,1-.61.44c-.45,0-.75-.38-.75-1S88.21,258.6,88.66,258.6Z"/><path d="M84.29,260.81h.42l.34-.95h1.36l.34.95h.42l-1.23-3.36h-.42ZM85.74,258l.54,1.52h-1.1l.54-1.52Z"/><polygon points="72.38 260.3 71.68 258.29 71.26 258.29 72.19 260.81 72.59 260.81 73.52 258.29 73.1 258.29 72.4 260.3 72.38 260.3"/><path d="M63.41,260.84a.84.84,0,0,0,.29,0l-.08-.34-.17,0c-.17,0-.34-.06-.34-.38v-1.47h.54v-.33h-.54v-.6h-.38v.6h-.38v.33h.38v1.57A.64.64,0,0,0,63.41,260.84Z"/><path d="M79.82,260.81v-1.66a.83.83,0,0,0-.93-.89,1,1,0,0,0-1,.59l.36.13a.68.68,0,0,1,.66-.38.47.47,0,0,1,.53.51h0c0,.19-.19.17-.65.23s-1,.16-1,.74a.79.79,0,0,0,.86.78.8.8,0,0,0,.75-.4h0v.34Zm-1.1-.29c-.31,0-.53-.14-.53-.41s.27-.38.57-.42a1.9,1.9,0,0,0,.67-.15v.36A.65.65,0,0,1,78.72,260.52Z"/><polygon points="68.19 260.81 68.19 257.45 67.78 257.45 67.78 258.94 65.99 258.94 65.99 257.45 65.58 257.45 65.58 260.81 65.99 260.81 65.99 259.31 67.78 259.31 67.78 260.81 68.19 260.81"/><path d="M61.35,258.4l.21.17a1.12,1.12,0,0,0,.42-.83v-.29h-.37v.3A1.15,1.15,0,0,1,61.35,258.4Z"/><path d="M101.79,260.84a.84.84,0,0,0,.29,0l-.08-.34-.17,0c-.17,0-.34-.06-.34-.38v-1.47H102v-.33h-.54v-.6h-.38v.6h-.38v.33h.38v1.57A.64.64,0,0,0,101.79,260.84Z"/><path d="M100.23,260.81v-1.6c0-.65-.34-.95-.85-.95a.76.76,0,0,0-.74.42h0v-.39h-.37v2.52h.38v-1.52a.62.62,0,0,1,.64-.69.56.56,0,0,1,.58.63v1.58Z"/><path d="M103.91,259.08a.9.9,0,0,0-.49-1.68.92.92,0,0,0-1,.89h.42a.54.54,0,0,1,.56-.55.53.53,0,0,1,.56.53.64.64,0,0,1-.34.56,1,1,0,0,0-.52,1v0h.39v0A.77.77,0,0,1,103.91,259.08Z"/><path d="M91.24,258.6a.6.6,0,0,1,.61.44h.38a.92.92,0,0,0-1-.78,1.31,1.31,0,0,0,0,2.6.93.93,0,0,0,1-.79h-.38a.6.6,0,0,1-.61.44c-.46,0-.75-.38-.75-1S90.79,258.6,91.24,258.6Z"/><path d="M92.68,259.56a1.15,1.15,0,1,0,1.14-1.3A1.16,1.16,0,0,0,92.68,259.56Zm1.9,0c0,.51-.24.95-.76.95s-.75-.44-.75-.95.23-1,.75-1S94.58,259.06,94.58,259.56Z"/><path d="M97.53,260.81v-2.52h-.39v1.49a.66.66,0,0,1-.65.69.55.55,0,0,1-.55-.61v-1.57h-.39v1.6c0,.64.34.95.82.95a.76.76,0,0,0,.74-.46h0v.43Z"/><path d="M70.84,260.81v-1.66a.83.83,0,0,0-.93-.89,1,1,0,0,0-1,.59l.37.13a.67.67,0,0,1,.65-.38.47.47,0,0,1,.54.51h0c0,.19-.19.17-.65.23s-1,.16-1,.74a.78.78,0,0,0,.86.78.8.8,0,0,0,.75-.4h0v.34Zm-1.09-.29c-.31,0-.53-.14-.53-.41s.27-.38.57-.42a2,2,0,0,0,.67-.15v.36A.65.65,0,0,1,69.75,260.52Z"/><path d="M103,260.54a.3.3,0,0,0,.3.29.29.29,0,0,0,.29-.29.3.3,0,0,0-.29-.3A.31.31,0,0,0,103,260.54Z"/><path d="M56.06,259.56a1.15,1.15,0,1,0,1.14-1.3A1.16,1.16,0,0,0,56.06,259.56Zm1.9,0c0,.51-.24.95-.76.95s-.75-.44-.75-.95.24-1,.75-1S58,259.06,58,259.56Z"/><path d="M52.92,257.45v3.36h1a1.51,1.51,0,0,0,1.6-1.69A1.49,1.49,0,0,0,54,257.45Zm2.24,1.67c0,.82-.4,1.33-1.23,1.33h-.61v-2.64H54C54.76,257.81,55.16,258.31,55.16,259.12Z"/><path d="M76,259.51c0-.93-.56-1.25-1.09-1.25a1.31,1.31,0,0,0,0,2.6,1,1,0,0,0,1-.64l-.38-.1a.61.61,0,0,1-.63.39.76.76,0,0,1-.78-.83H76Zm-1.83-.17a.74.74,0,0,1,.74-.74.69.69,0,0,1,.69.74Z"/><path d="M60.93,260.81v-1.6c0-.65-.34-.95-.85-.95a.76.76,0,0,0-.74.42h0v-.39h-.37v2.52h.38v-1.52a.63.63,0,0,1,.65-.69.56.56,0,0,1,.57.63v1.58Z"/><path d="M50,89.13a7.08,7.08,0,0,0,3.42.81,6.87,6.87,0,0,0,2.21-.39,6.3,6.3,0,0,0,2-1,.83.83,0,0,0,.37-.71,1.13,1.13,0,0,0-.42-.77,1,1,0,0,0-.72-.23,1.21,1.21,0,0,0-.73.26,4.69,4.69,0,0,1-1.23.62,4.38,4.38,0,0,1-1.45.25,4.6,4.6,0,0,1-3-1A4.15,4.15,0,0,1,49,84.35h8.77a1.09,1.09,0,0,0,.76-.27,1,1,0,0,0,.3-.74,7.09,7.09,0,0,0-.69-3.21,5,5,0,0,0-2-2.19A5.69,5.69,0,0,0,53,77.13a6.29,6.29,0,0,0-3.23.83,5.72,5.72,0,0,0-2.21,2.26,6.75,6.75,0,0,0-.79,3.33,6.62,6.62,0,0,0,.83,3.32A6.24,6.24,0,0,0,50,89.13Zm.33-9.07a3.9,3.9,0,0,1,2.74-1,3.28,3.28,0,0,1,2.49,1,4.19,4.19,0,0,1,1.14,2.43H49A4.19,4.19,0,0,1,50.3,80.06Z"/><path d="M32.41,95.25a1.14,1.14,0,0,0,1.17-1.18V87.84a6.36,6.36,0,0,0,1.94,1.55,5.88,5.88,0,0,0,2.52.55,5.64,5.64,0,0,0,3-.83,6,6,0,0,0,2.1-2.29A6.82,6.82,0,0,0,44,83.55a6.35,6.35,0,0,0-.86-3.28A6.13,6.13,0,0,0,40.83,78a6.35,6.35,0,0,0-8.75,2.29,6.64,6.64,0,0,0-.85,3.28V94.07a1.13,1.13,0,0,0,.32.83A1.18,1.18,0,0,0,32.41,95.25ZM34,81.33a3.9,3.9,0,0,1,1.46-1.55,4,4,0,0,1,2.1-.57,3.93,3.93,0,0,1,3.55,2.12,4.38,4.38,0,0,1,.55,2.22,4.45,4.45,0,0,1-.55,2.21,4.16,4.16,0,0,1-1.45,1.55,4,4,0,0,1-2.1.55A3.9,3.9,0,0,1,34,85.76a4.66,4.66,0,0,1-.53-2.21A4.58,4.58,0,0,1,34,81.33Z"/><path d="M61.26,79.67h1.06v5.7a4.85,4.85,0,0,0,.53,2.28,4.24,4.24,0,0,0,1.46,1.62,3.87,3.87,0,0,0,2.07.58h.42a1.41,1.41,0,0,0,1-.33,1,1,0,0,0,.39-.83,1.18,1.18,0,0,0-.3-.83.87.87,0,0,0-.69-.32h-.79a1.56,1.56,0,0,1-1.24-.62,2.39,2.39,0,0,1-.51-1.55v-5.7h2a1.09,1.09,0,0,0,.79-.28.89.89,0,0,0,.3-.69,1,1,0,0,0-.3-.74,1.14,1.14,0,0,0-.79-.28h-2V74.36a1.13,1.13,0,0,0-.32-.83,1.11,1.11,0,0,0-.83-.32,1.11,1.11,0,0,0-1.16,1.15v3.32H61.26a1.13,1.13,0,0,0-.78.28,1,1,0,0,0-.3.74.89.89,0,0,0,.3.69A1.08,1.08,0,0,0,61.26,79.67Z"/><path class="cls-4" d="M105,89.06a1.23,1.23,0,0,0,1.11.76,1.11,1.11,0,0,0,1.06-.76l4.9-10.31a1,1,0,0,0,0-.79,1,1,0,0,0-.55-.58,1.18,1.18,0,0,0-.88-.07,1.08,1.08,0,0,0-.62.53l-4,8.66-4-8.66a1.08,1.08,0,0,0-.62-.53,1,1,0,0,0-.79.07,1.17,1.17,0,0,0-.6.6,1,1,0,0,0,0,.77Z"/><path class="cls-4" d="M116.53,89.13a7.08,7.08,0,0,0,3.42.81,6.87,6.87,0,0,0,2.21-.39,6.3,6.3,0,0,0,2-1,.8.8,0,0,0,.36-.71,1.08,1.08,0,0,0-.41-.77,1,1,0,0,0-.72-.23,1.26,1.26,0,0,0-.74.26A4.76,4.76,0,0,1,120,88a4.6,4.6,0,0,1-3-1,4.15,4.15,0,0,1-1.45-2.61h8.77a1.1,1.1,0,0,0,.76-.27,1,1,0,0,0,.3-.74,7.09,7.09,0,0,0-.69-3.21,5,5,0,0,0-2-2.19,5.69,5.69,0,0,0-3.09-.81,6.29,6.29,0,0,0-3.23.83,5.81,5.81,0,0,0-2.22,2.26,6.86,6.86,0,0,0-.78,3.33,6.62,6.62,0,0,0,.83,3.32A6.24,6.24,0,0,0,116.53,89.13Zm.32-9.07a4,4,0,0,1,2.75-1,3.28,3.28,0,0,1,2.49,1,4.19,4.19,0,0,1,1.14,2.43h-7.69A4.24,4.24,0,0,1,116.85,80.06Z"/><path class="cls-4" d="M71.86,88.32a7.35,7.35,0,0,0,2.33,1.3,8.87,8.87,0,0,0,2.82.46,8.69,8.69,0,0,0,2.4-.33,6.31,6.31,0,0,0,2.08-1,5,5,0,0,0,1.45-1.64,4.54,4.54,0,0,0,.56-2.29A4.69,4.69,0,0,0,82,81.19a7.14,7.14,0,0,0-4.27-1.68,8.87,8.87,0,0,1-2.77-.65,3.08,3.08,0,0,1-1.32-1.08,2.84,2.84,0,0,1-.34-1.34,2.14,2.14,0,0,1,1.15-2,5.5,5.5,0,0,1,2.86-.65,4.59,4.59,0,0,1,2.34.58,4.3,4.3,0,0,1,1.5,1.55,1.28,1.28,0,0,0,.76.6,1.07,1.07,0,0,0,.94-.12.89.89,0,0,0,.44-.69,1.41,1.41,0,0,0-.25-1,7.16,7.16,0,0,0-2.22-2.26,6.29,6.29,0,0,0-3.44-.86,9.19,9.19,0,0,0-3.27.56,5.29,5.29,0,0,0-2.31,1.61,4,4,0,0,0-.86,2.59,4.42,4.42,0,0,0,1.64,3.48A8,8,0,0,0,77,81.54a5,5,0,0,1,3.14,1.2,3,3,0,0,1,1,2.19,2.4,2.4,0,0,1-.58,1.64,3.66,3.66,0,0,1-1.52,1,5.73,5.73,0,0,1-2,.35,5.94,5.94,0,0,1-1.89-.3,5.25,5.25,0,0,1-1.55-.79,3.06,3.06,0,0,1-.9-1.06,1.29,1.29,0,0,0-.62-.64,1.06,1.06,0,0,0-.81-.14,1.17,1.17,0,0,0-.83.53,1,1,0,0,0,0,.9A5.09,5.09,0,0,0,71.86,88.32Z"/><path class="cls-4" d="M89.18,89.11a5.93,5.93,0,0,0,5.52.28,6.21,6.21,0,0,0,2-1.55v.85a1.12,1.12,0,0,0,1.18,1.18,1.13,1.13,0,0,0,.83-.32,1.18,1.18,0,0,0,.35-.86V83.55a6.35,6.35,0,0,0-.86-3.28A6.06,6.06,0,0,0,95.9,78a6.16,6.16,0,0,0-3.23-.85,6.3,6.3,0,0,0-5.54,3.14,6.53,6.53,0,0,0-.83,3.28,6.92,6.92,0,0,0,.76,3.27A6.15,6.15,0,0,0,89.18,89.11Zm-.09-7.78a4.09,4.09,0,0,1,1.48-1.55,4,4,0,0,1,2.1-.57,3.94,3.94,0,0,1,2.1.57,3.87,3.87,0,0,1,1.45,1.55,4.48,4.48,0,0,1,.54,2.22,4.55,4.55,0,0,1-.54,2.21,4.08,4.08,0,0,1-1.45,1.55,4,4,0,0,1-2.1.55,4.07,4.07,0,0,1-2.1-.55,4.32,4.32,0,0,1-1.48-1.55,4.66,4.66,0,0,1-.53-2.21A4.58,4.58,0,0,1,89.09,81.33Z"/><path d="M37,161.76a.3.3,0,0,0,.2-.08.26.26,0,0,0,.08-.19.25.25,0,0,0-.08-.18.3.3,0,0,0-.2-.08.27.27,0,0,0-.19.08.25.25,0,0,0-.08.18.26.26,0,0,0,.08.19A.27.27,0,0,0,37,161.76Z"/><path d="M38.07,164.08a.61.61,0,0,0,.11.36.59.59,0,0,0,.25.22,1,1,0,0,0,.33.07l.17,0,.11,0-.07-.35-.07,0h-.1l-.17,0a.25.25,0,0,1-.12-.11.55.55,0,0,1,0-.25V162.5H39v-.32h-.54v-.61h-.39v.61h-.38v.32h.38Z"/><rect x="36.81" y="162.18" width="0.39" height="2.52"/><path d="M33.18,163.12a.73.73,0,0,1,.08-.33.74.74,0,0,1,.21-.22.57.57,0,0,1,.28-.08.48.48,0,0,1,.36.13.45.45,0,0,1,.14.35v1.72h.4v-1.64a.56.56,0,0,1,.14-.4.53.53,0,0,1,.41-.16.56.56,0,0,1,.36.12.48.48,0,0,1,.15.4v1.68h.39V163a.9.9,0,0,0-.21-.66.78.78,0,0,0-.56-.21.85.85,0,0,0-.46.12.72.72,0,0,0-.29.31h0a.67.67,0,0,0-.26-.31.69.69,0,0,0-.41-.12.7.7,0,0,0-.42.12.62.62,0,0,0-.26.31h0v-.39H32.8v2.51h.38Z"/><path d="M40,163.18a.66.66,0,0,1,.19-.51.64.64,0,0,1,.47-.18.55.55,0,0,1,.43.17.61.61,0,0,1,.16.46v1.57h.38v-1.6a.94.94,0,0,0-.23-.71.84.84,0,0,0-.62-.24.85.85,0,0,0-.48.12.74.74,0,0,0-.27.31h0v-1.23h-.39v3.35H40Z"/><path d="M24.06,165.43a.81.81,0,0,0,.17-.55v-2.7h-.38v2.7a.5.5,0,0,1-.08.29.32.32,0,0,1-.26.11h-.08v.36h.08A.68.68,0,0,0,24.06,165.43Z"/><path d="M24,161.76a.27.27,0,0,0,.19-.08.22.22,0,0,0,.08-.19.22.22,0,0,0-.08-.18.27.27,0,0,0-.19-.08.3.3,0,0,0-.2.08.25.25,0,0,0-.08.18.26.26,0,0,0,.08.19A.3.3,0,0,0,24,161.76Z"/><path d="M28.13,164.59a1.21,1.21,0,0,0,.62.16,1.11,1.11,0,0,0,.65-.18.85.85,0,0,0,.36-.46l-.38-.11a.59.59,0,0,1-.23.3.82.82,0,0,1-.95-.12.85.85,0,0,1-.23-.61H29.8v-.17a1.69,1.69,0,0,0-.1-.59,1,1,0,0,0-.25-.39.84.84,0,0,0-.35-.21,1,1,0,0,0-.39-.07,1.07,1.07,0,0,0-.59.17,1.13,1.13,0,0,0-.4.46,1.65,1.65,0,0,0-.14.68,1.59,1.59,0,0,0,.14.68A1.08,1.08,0,0,0,28.13,164.59Zm-.06-1.72a.78.78,0,0,1,.26-.28.7.7,0,0,1,.38-.1.66.66,0,0,1,.51.21.79.79,0,0,1,.18.53H28A.88.88,0,0,1,28.07,162.87Z"/><path d="M31.22,164.4a.52.52,0,0,1-.58-.4l-.37.09a.76.76,0,0,0,.32.49,1.15,1.15,0,0,0,.64.17,1.38,1.38,0,0,0,.52-.1.93.93,0,0,0,.34-.27.65.65,0,0,0,.12-.39c0-.34-.22-.57-.66-.68l-.38-.09a1,1,0,0,1-.33-.14.28.28,0,0,1-.1-.23.32.32,0,0,1,.15-.27.67.67,0,0,1,.39-.1.54.54,0,0,1,.37.11.66.66,0,0,1,.17.25l.35-.1a.84.84,0,0,0-.31-.43.91.91,0,0,0-.58-.17,1.06,1.06,0,0,0-.48.1.76.76,0,0,0-.33.25.66.66,0,0,0,0,.81,1,1,0,0,0,.51.26l.42.1c.25.06.37.17.37.35a.33.33,0,0,1-.16.28A.69.69,0,0,1,31.22,164.4Z"/><path d="M25.37,164.58a1.13,1.13,0,0,0,1.19,0,1,1,0,0,0,.4-.45,1.48,1.48,0,0,0,.15-.68,1.52,1.52,0,0,0-.15-.69,1.06,1.06,0,0,0-.4-.46,1.19,1.19,0,0,0-1.19,0,1.06,1.06,0,0,0-.4.46,1.52,1.52,0,0,0-.14.69,1.48,1.48,0,0,0,.14.68A1,1,0,0,0,25.37,164.58Zm-.08-1.6a.86.86,0,0,1,.25-.36.65.65,0,0,1,.43-.13.64.64,0,0,1,.42.13.78.78,0,0,1,.25.36,1.4,1.4,0,0,1,.08.47,1.45,1.45,0,0,1-.08.47.81.81,0,0,1-.25.35.7.7,0,0,1-.42.13.71.71,0,0,1-.43-.13.9.9,0,0,1-.25-.35,1.45,1.45,0,0,1-.08-.47A1.4,1.4,0,0,1,25.29,163Z"/><polygon points="33.14 198.5 33.75 198.11 33.72 198.83 34.04 198.83 34.01 198.11 34.62 198.5 34.78 198.22 34.14 197.89 34.78 197.56 34.62 197.28 34.01 197.67 34.04 196.95 33.72 196.95 33.75 197.67 33.14 197.28 32.98 197.56 33.62 197.89 32.98 198.22 33.14 198.5"/><polygon points="28.52 198.5 29.13 198.11 29.11 198.83 29.42 198.83 29.39 198.11 30 198.5 30.16 198.22 29.52 197.89 30.16 197.56 30 197.28 29.39 197.67 29.42 196.95 29.11 196.95 29.13 197.67 28.52 197.28 28.37 197.56 29.01 197.89 28.37 198.22 28.52 198.5"/><polygon points="42.37 198.5 42.98 198.11 42.95 198.83 43.27 198.83 43.24 198.11 43.85 198.5 44.01 198.22 43.37 197.89 44.01 197.56 43.85 197.28 43.24 197.67 43.27 196.95 42.95 196.95 42.98 197.67 42.37 197.28 42.21 197.56 42.86 197.89 42.21 198.22 42.37 198.5"/><polygon points="30.83 198.5 31.44 198.11 31.41 198.83 31.73 198.83 31.7 198.11 32.31 198.5 32.47 198.22 31.83 197.89 32.47 197.56 32.31 197.28 31.7 197.67 31.73 196.95 31.41 196.95 31.44 197.67 30.83 197.28 30.67 197.56 31.32 197.89 30.67 198.22 30.83 198.5"/><polygon points="35.45 198.5 36.06 198.11 36.03 198.83 36.35 198.83 36.32 198.11 36.93 198.5 37.09 198.22 36.44 197.89 37.09 197.56 36.93 197.28 36.32 197.67 36.35 196.95 36.03 196.95 36.06 197.67 35.45 197.28 35.29 197.56 35.93 197.89 35.29 198.22 35.45 198.5"/><polygon points="40.06 198.5 40.67 198.11 40.65 198.83 40.96 198.83 40.94 198.11 41.55 198.5 41.7 198.22 41.06 197.89 41.7 197.56 41.55 197.28 40.94 197.67 40.96 196.95 40.65 196.95 40.67 197.67 40.06 197.28 39.91 197.56 40.55 197.89 39.91 198.22 40.06 198.5"/><polygon points="26.21 198.5 26.82 198.11 26.8 198.83 27.11 198.83 27.09 198.11 27.7 198.5 27.85 198.22 27.21 197.89 27.85 197.56 27.7 197.28 27.09 197.67 27.11 196.95 26.8 196.95 26.82 197.67 26.21 197.28 26.06 197.56 26.7 197.89 26.06 198.22 26.21 198.5"/><polygon points="37.76 198.5 38.37 198.11 38.34 198.83 38.65 198.83 38.63 198.11 39.24 198.5 39.4 198.22 38.75 197.89 39.4 197.56 39.24 197.28 38.63 197.67 38.65 196.95 38.34 196.95 38.37 197.67 37.76 197.28 37.6 197.56 38.24 197.89 37.6 198.22 37.76 198.5"/><polygon points="23.91 198.5 24.52 198.11 24.49 198.83 24.8 198.83 24.78 198.11 25.39 198.5 25.55 198.22 24.9 197.89 25.55 197.56 25.39 197.28 24.78 197.67 24.8 196.95 24.49 196.95 24.52 197.67 23.91 197.28 23.75 197.56 24.39 197.89 23.75 198.22 23.91 198.5"/><path class="cls-5" d="M1,69.5H2.58a0,0,0,0,1,0,0V93a0,0,0,0,1,0,0H1a1,1,0,0,1-1-1V70.5A1,1,0,0,1,1,69.5Z"/><path class="cls-5" d="M1,98.68H2.58a0,0,0,0,1,0,0v23.53a0,0,0,0,1,0,0H1a1,1,0,0,1-1-1V99.68A1,1,0,0,1,1,98.68Z"/><rect class="cls-5" x="0.36" y="47.97" width="2.22" height="10.89"/><path class="cls-6" d="M154.84,78.27V23.15A23.18,23.18,0,0,0,131.69,0h-107A23.17,23.17,0,0,0,1.58,23.15V290.41a23.17,23.17,0,0,0,23.14,23.15h107a23.18,23.18,0,0,0,23.15-23.15V115.05a1,1,0,0,0,.82-1V79.23A1,1,0,0,0,154.84,78.27Zm-9,212.14a14.16,14.16,0,0,1-14.15,14.15h-107a14.15,14.15,0,0,1-14.14-14.15V23.15A14.16,14.16,0,0,1,24.72,9h107a14.17,14.17,0,0,1,14.15,14.15Z"/><path class="cls-2" d="M131.69,2h-107A21.21,21.21,0,0,0,3.58,23.15V290.41a21.2,21.2,0,0,0,21.14,21.15h107a21.21,21.21,0,0,0,21.15-21.15V23.15A21.22,21.22,0,0,0,131.69,2Zm14.15,288.41a14.16,14.16,0,0,1-14.15,14.15h-107a14.15,14.15,0,0,1-14.14-14.15V23.15A14.16,14.16,0,0,1,24.72,9h16v1.65a8,8,0,0,0,8,8h58a9,9,0,0,0,9-9V9h16a14.17,14.17,0,0,1,14.15,14.15Z"/><rect class="cls-6" x="70.19" y="11" width="15.74" height="2" rx="0.5"/><circle class="cls-6" cx="93.97" cy="12.28" r="1.39"/></g></g></svg>